<svg xmlns="http://www.w3.org/2000/svg" version="1.1" xmlns:xlink="http://www.w3.org/1999/xlink" xmlns:svgjs="http://svgjs.com/svgjs" id="svg-pattern-348" width="100%" height="100%"><defs><pattern x="0" y="0" width="150" height="425" patternUnits="userSpaceOnUse" id="pattern-348-layer-1"><g id="PatternRootContent1" transform="scale(0.5)"><polygon class="fill0" points="0,850 150,850 150,850 300,850 300,0 0,0 0,425 " fill="#ffffff"></polygon>
<g class="fill1" fill="#0000ff">
	<path d="M1.3,72.2l1.3-0.3l0,0l-1.2-4.7L5,63.8l1,0.6l0.4,7.1l1.3-0.1l-0.4-6.2l0.1,0.1l0.7-1.2l0,0l-0.9-0.5l-0.1-1.8
		l6.5-6L14.1,75L3.9,81.3l0.7,1.1l9.5-5.9l0.1,5.8L13.9,82L3.3,91.7l0.9,1l9.7-8.9l0.4,0.3l0.2,9.3h1.3l-0.2-7.9l8.3,7.7l0.9-1l0,0
		l-9.3-8.6l0-6.6l7.7,7.5l0.9-1l0,0L15.4,75L15,56l4.7,5v2.1l-2.1,1.1l0.6,1.2l1.5-0.8l0.2,7.2h1.3L21,63.9l0.9-0.5l3.1,3.3
		l-0.6,1.8l1.3,0.4l0.4-1.1l2.7,2.9l1-0.9l0,0l-3.2-3.4l1.6-4.8h0.5l4.2,6.7l1.1-0.7l-3.7-5.9h0.6v-1.3l0,0h-1.5l-0.6-0.9l2.7-8.4
		l9.7,16.6L35.5,78l1.2,0.7l5.4-9.8l2.9,5l-0.4-0.1L40,87.4l1.3,0.4l4.2-12.5l0.5,0.1l4.7,8l1.2-0.7l-4-6.9l11,2.7l0.3-1.3
		l-12.3-3.1l-3.3-5.7l10.3,2.8l0.4-1.3l0,0l-11.7-3.2L33,50.2l6.5,2.1l0.8,1.3l-1.5,2.3l1.1,0.7l1.1-1.7l3.9,6.7l1.2-0.7l-4.2-7.3
		l0.3-0.5l4.3,1.4l0.4,1.9l1.3-0.3L48,55l4.3,1.4l0.4-1.3l0,0l-5-1.6l-0.9-4.6l0.8-0.4l6.5,3.6l0.6-1.2L48.9,48l0.6-0.3l-0.6-1.2
		l0,0l-1.4,0.7l-1.3-0.7l-1.7-8.7L61,47.6v12h1.3V48.5l5,3H67l2.6,14.1l1.3-0.2l-2.4-12.9l0.5-0.1l8,4.7l0.7-1.2l-6.8-4.1l11-3
		l-0.3-1.3l0,0l-12.2,3.3l-5.7-3.4L73.9,45l-0.3-1.3l0,0l-11.8,2.9l-16.4-9.8l6.7-1.3l9.3,5.5l0.7-1.1l-8-4.8l11.2-2.2L65,31.5l0,0
		l-6.4,1.3l-0.4-5.9l0.4-0.7L58.1,26L58,25l6.3,4.8l0.8-1.1l0,0L59,24l7.9-1l-0.2-1.3l-9.3,1.2l-6.8-5.1l16.6-1.2L78.7,25l0.8-1.1
		l0,0l-10.2-7.6l11.4-0.9l7.4,6.7l0.9-1l0,0l-6.5-5.8l5.7-0.4l-0.1-1.3l-6,0.5L87,5.3l-1.2-0.7l-5.3,9.5L69.2,15l9.1-9.7l-1-0.9
		L67.2,15.1l-16.9,1.3l6.4-8.3H57l1.6,2.5l1.1-0.7l-1.3-2l7.9-1.1l-0.2-1.3l-8.3,1.1l2.7-3.5l2.2,0.3L63,2.1l0,0l-1.4-0.2L63,0h-1.7
		L60,1.7l-4-0.6l-0.1-0.6L56.6,0h-2.3l-1,0.7L48.5,0h-6.7L32,6.4L31,0h-1l1.1,7l-9.2,6l-1.1-7.1L23.9,0h-1.5l-3.2,6.1l-5.3,2.7
		L13.7,0h-1.3l0.2,8.5c-1.1-0.8-3.2-2.1-5.9-2.9L3.4,0H1.9l3.2,5.5L5.3,13L0,9.8v1.6l4.9,2.9L0,18.8v1.3l5.7-5.3l4.5,2.7
		c-0.2,0.7-0.1,1.2-0.1,1.9L0,20.1v2l4.9,2L0,27.4V29l5.7-3.7l0.3,6L0,42.7V46l13.3-6.2l0.3,14.1l-7.4,6.9l-3.9-0.1L0,59.3v9.2
		l0.3-0.3L1.3,72.2z M59.1,2.9l-2,2.6l-0.4-0.6l-0.4-2.5L59.1,2.9z M14.2,21.6c0.1,0,0.1,0,0.2-0.1l5.3,9.1L14.4,28L14.2,21.6z
		 M23.6,23.8l6.1-4.6l18.8-1.4l-15,11.3l-0.1,0.5L23.6,23.8z M33.1,31.1L30.6,46l-0.4-0.2l-8.3-14.3L23,25L33.1,31.1z M22.7,23.3
		l-5.3-3.1l10.5-0.8L22.7,23.3z M22,24.5l-1,5.7l-5.5-9.4l0.1-0.1L22,24.5z M14.4,29.1l6.2,3L28,44.8l-13.4-6.5L14.4,29.1z
		 M22.3,61.7L22,61.3h1L22.3,61.7z M25.6,65.2l-2.4-2.5l2.5-1.3h1.1L25.6,65.2z M27.6,58.9l-2.3,1.2L20.6,60l-5.7-6l-0.3-14.6
		l14.3,6.9l1.8,3.1L27.6,58.9z M46.2,53.3l-3.3-1l1.1-1.7l1.5-0.8L46.2,53.3z M44.9,46.8L43,49.5l-3.3,1.7l-7.9-2.5L31,47.3l0.3,0.1
		L34,31.6l8.9,5.3L44.9,46.8z M57.3,33.1l-3.6,0.7l3.3-5L57.3,33.1z M56.6,23.9l0.2,2.7l-5,7.6l-8.1,1.6l-9.4-5.6l0.1-0.5l15.1-11.3
		L56.6,23.9z M43.3,0.6L53.2,2l2.2,3.4l0.3,1.8l-7,9L33,7.3L43.3,0.6z M32.1,7.9l15.1,8.7l-17.6,1.3L22.9,14L32.1,7.9z M22,14.6
		l6,3.4l-11.5,0.9c0-0.2,0-0.5,0-0.7L22,14.6z M20.1,7.3l1,6.3l-5,3.3c-0.2-0.3-0.4-0.5-0.6-0.7L20.1,7.3z M18.5,7.6l-4.1,7.9
		c-0.1,0-0.2-0.1-0.2-0.1L14,9.9L18.5,7.6z M13,28.1l-5,2.3l4.6-8.8c0.1,0,0.2,0,0.3,0L13,28.1z M12.6,9.7l0.1,5.6
		c-0.1,0-0.2,0-0.3,0.1l-5-8.6C10.1,7.8,11.9,9.1,12.6,9.7z M6.3,13.6L6.1,7.3l5.1,8.8c-0.1,0.1-0.2,0.2-0.3,0.3L6.3,13.6z M11,21.8
		l-4.1,7.8l-0.3-4.9L11,21.8z M5.8,23.6l-5.1-2.2l9.5-0.7L5.8,23.6z M0.4,44.8l6.8-13l5.8-2.7l0.2,9.7L0.4,44.8z M2,62l1.8,1.1
		L1,65.7L0.1,62H2z"></path>
	<path d="M1.1,273.5l1.3-0.3l0,0l-1.2-4.7l3.6-3.4l1,0.6l0.4,7.1l1.3-0.1l-0.4-6.2l0.1,0.1l0.7-1.2l0,0L7,264.9L6.9,263
		l6.5-6l0.4,19.2l-10.2,6.4l0.7,1.1l9.5-5.9l0.1,5.8l-0.3-0.3L3.1,293l0.9,1l9.7-8.9l0.4,0.3l0.2,9.3h1.3l-0.2-7.9l8.3,7.7l0.9-1
		l0,0l-9.3-8.6l-0.1-6.6l7.7,7.5l0.9-1l0,0l-8.7-8.5l-0.4-19.1l4.7,5v2.1l-2.1,1.1l0.6,1.2l1.5-0.8l0.2,7.2h1.3l-0.2-7.9l0.9-0.5
		l3.1,3.3l-0.6,1.8l1.3,0.4l0.4-1.1l2.7,2.9l1-0.9l0,0l-3.2-3.4l1.6-4.8h0.5l4.2,6.7l1.1-0.7l-3.7-5.9h0.6v-1.3l0,0h-1.5l-0.6-0.9
		l2.7-8.4l9.7,16.6l-5.8,10.5l1.2,0.7l5.4-9.8l2.9,5l-0.4-0.1l-4.6,13.6l1.3,0.4l4.2-12.5l0.5,0.1l4.7,8l1.2-0.7l-4-6.9l11,2.7
		l0.3-1.3l-12.3-3.1l-3.3-5.7l10.3,2.8l0.4-1.3l0,0l-11.7-3.2l-9.6-16.5l6.5,2.1l0.8,1.3l-1.5,2.3l1.1,0.7l1.1-1.7l3.9,6.7l1.2-0.7
		l-4.2-7.3l0.3-0.5l4.3,1.4l0.4,1.9l1.3-0.3l-0.2-1.1l4.3,1.4l0.4-1.3l0,0l-5-1.6l-0.9-4.6l0.8-0.4l6.5,3.6l0.6-1.2l-5.7-3.1
		l0.6-0.3l-0.6-1.2l0,0l-1.4,0.7l-1.3-0.7l-1.7-8.7l16.5,9.8v12H62v-11.2l5,3l-0.4,0.1l2.6,14.1l1.3-0.2l-2.4-12.9l0.5-0.1l8,4.7
		l0.7-1.2l-6.8-4.1l11-3l-0.3-1.3l0,0L69,252l-5.7-3.4l10.4-2.5l-0.3-1.3l0,0l-11.8,2.9l-16.4-9.8l6.7-1.3l9.3,5.5l0.7-1.1l-8-4.8
		l11.2-2.2l-0.3-1.3l0,0l-6.4,1.3l-0.4-5.9l0.4-0.7l-0.5-0.3l-0.1-1l6.3,4.8l0.8-1.1l0,0l-6.2-4.7l7.9-1l-0.2-1.3l-9.3,1.2l-6.8-5.1
		l16.6-1.2l11.4,8.5l0.8-1.1l0,0l-10.2-7.6l11.4-0.9l7.4,6.7l0.9-1l0,0l-6.5-5.8l5.7-0.4l-0.1-1.3l-6,0.5l4.9-8.8l-1.2-0.7l-5.3,9.5
		l-11.4,0.9l9.1-9.7l-1-0.9L67,216.4l-16.9,1.3l6.4-8.3h0.3l1.6,2.5l1.1-0.7l-1.3-2l7.9-1.1l-0.2-1.3l-8.3,1.1l2.7-3.5l2.2,0.3
		l0.2-1.3l0,0l-1.4-0.2l2.9-3.7l-1.1-0.8l-3.4,4.3l-4-0.6l-0.1-0.6l5.8-4.2l-0.8-1.1l-5.3,3.8l-0.3-1.7l-1.3,0.2l0.4,2.3l-1.1,0.8
		l-8.4-1.2l13.9-9.2l14.1,1.9l0.2-1.3l0,0l-12.6-1.7l9.6-6.3l9.7,2.2l0.3-1.3l0,0l-8.5-1.9l4.8-3.1l-0.7-1.1l-5,3.3v-10h-1.3v10.9
		l-9.6,6.3l3.2-12.9l-1.3-0.3l-3.6,14.4l-14.1,9.3l1.6-10.4L46,189l2.4,1.3l0.6-1.2l0,0l-1.8-1l5.9-4.4l-0.8-1.1l-6.4,4.8l-0.2-0.1
		l0.7-4.4l2.2-0.8l-0.5-1.3l-1.5,0.6l0.7-4.2L46,177l-0.8,5l-4.1,1.6l-0.1-0.2l3.2-7l-1.2-0.6l-3,6.2l-1.1-1.3l-1,0.8l1.5,1.8
		l-0.3,0.7l-7.9,3l7.8-14.8l13.3-5.2l-0.5-1.3L40,170.3l5.3-10.1l9.6-2.8l-0.4-1.3l0,0l-8.3,2.4l2.6-5l-1.2-0.6l-2.8,5.3l-4.8-8.8
		l-1.2,0.6l5.3,9.6L38.6,170l-3.4-12.9l-1.3,0.3l3.8,14.3l-7.9,15l-3.6-9.8l0.3-0.8l3.2-0.1v-1.3h-2.5l3-6.7l-1.2-0.5l-3.3,7.3h-0.3
		L24,171l1.8-2.2l-1-0.9l0,0l-1.3,1.6l-1.6-4.4l-1.3,0.5l1.9,5.1l-2.6,3.1h-0.1l-0.6-7.8l-1.3,0.1l0.5,7.2l-2-0.8l-0.5,1.2l0,0
		l2.6,1.1v0.7L13,182l-0.4-16.7l9.1-10.9l-1-0.9l0,0l-8.1,9.8l-0.3-11.4l7-7.1l-0.9-0.9l0,0l-6.1,6.1l-0.1-5.7h-1.3l0.1,6l-8.5-5.4
		L1.8,146l9.3,5.8l0.3,11.4L2,153.6l-1,0.9l10.3,10.7l0.4,16.9l-8-6.8V175l2.6-1.5l-0.7-1.2l-2.1,1.2L3,165.6l-1.3,0.1l0.7,8.3
		l-2.3-2v1.8l1.3,1.1l-0.5,0.3L0,175.3v1.9l1.2-0.7l1.7-0.2l8.9,7.6l0.3,13.7C10,196,5.8,193.2,0,191.2v1c6.2,2.2,10.5,5.3,12.1,6.7
		l0.2,10.8c-1.1-0.8-3.2-2.1-5.9-2.9l-6.4-11v2.7l4.9,8.3l0.2,7.5l-5.1-3v1.6l4.6,2.8L0,219.9v1.3l5.5-5.1l4.5,2.7
		c-0.2,0.7-0.1,1.2-0.1,1.9l-10,0.7v2.2l4.6,1.9l-4.6,3v1.6l5.4-3.6l0.4,5.9l-5.8,11v3.7l13-6.1l0.3,14.1l-7.2,7L2.1,262L0,260.7
		v2.5h1.8l1.8,1.1l-2.8,2.6l-0.8-3v5.6l0,0L1.1,273.5z M58.8,204.1l-2,2.6l-0.4-0.6l-0.4-2.5L58.8,204.1z M12.6,223l0.1,6.4
		l-5.1,2.3l4.6-8.8C12.4,222.9,12.5,222.9,12.6,223z M12.4,211l0.1,5.6c-0.1,0-0.2,0-0.3,0.1l-5-8.6C9.8,209.1,11.6,210.4,12.4,211z
		 M6.1,214.8l-0.2-6.3l5.1,8.8c-0.1,0.1-0.2,0.2-0.3,0.3L6.1,214.8z M10.7,223.1l-4.1,7.8L6.3,226L10.7,223.1z M5.6,224.9l-5.1-2.2
		L10,222L5.6,224.9z M0.2,246L7,233l5.8-2.7L13,240L0.2,246z M13.4,199.6l13.2-6.8L19,207.3l-5.3,2.7L13.4,199.6z M16.2,220.2
		c0-0.2,0-0.5,0-0.7l5.5-3.6l6,3.4L16.2,220.2z M27.7,220.7l-5.2,3.9l-5.3-3.1L27.7,220.7z M15.8,218.1c-0.2-0.3-0.4-0.5-0.6-0.7
		l4.6-8.8l1,6.3L15.8,218.1z M15.4,222l6.4,3.8l-1,5.7l-5.5-9.4C15.4,222,15.4,222,15.4,222z M22.7,226.3l10.2,6.1l-2.5,14.9
		l-0.4-0.2l-8.3-14.3L22.7,226.3z M23.4,225.1l6.1-4.6l18.8-1.4l-15.1,11.3l-0.1,0.5L23.4,225.1z M29.5,219.2l-6.8-3.9l9.3-6.1
		l15.1,8.7L29.5,219.2z M21.7,214.3l-1.1-7.1l7.8-14.8l2.5,15.9L21.7,214.3z M13.8,216.6l-0.1-5.5l4.5-2.3l-4.1,7.9
		C14,216.7,13.9,216.7,13.8,216.6z M14,222.8c0.1,0,0.1,0,0.2-0.1l5.3,9.1l-5.4-2.6L14,222.8z M14.1,230.3l6.2,3l7.4,12.7l-13.4-6.5
		L14.1,230.3z M22,263l-0.3-0.4h1L22,263z M25.3,266.5L23,264l2.5-1.3h1.1L25.3,266.5z M27.4,260.2l-2.3,1.2l-4.7-0.1l-5.7-6
		l-0.3-14.6l14.3,6.9l1.8,3.1L27.4,260.2z M45.9,254.6l-3.3-1l1.1-1.7l1.5-0.8L45.9,254.6z M44.6,248l-1.8,2.8l-3.3,1.7l-7.9-2.5
		l-0.8-1.4l0.3,0.1l2.7-15.8l8.9,5.3L44.6,248z M57,234.3l-3.6,0.7l3.3-5L57,234.3z M56.4,225.1l0.2,2.7l-5,7.6l-8.1,1.6l-9.4-5.6
		l0.1-0.5l15.1-11.3L56.4,225.1z M52.9,203.3l2.2,3.4l0.3,1.8l-7,9l-15.7-9l10.3-6.7L52.9,203.3z M44.9,183.3l-0.5,3.2l-1.5-0.8
		l-1-1.3L44.9,183.3z M30.2,188.9l9.3-3.5l2.6,1.4l2,2.5l-1.8,11.5l-10.5,6.9l-2.6-16.8L30.2,188.9z M23,172.2l1,2.7h-1.6l-1.2-0.5
		L23,172.2z M13.1,183.9l6.4-7.6H22l2.8,1.2l4,11l-1.6,3l-14,7.2L13.1,183.9z"></path>
	<path d="M2.3,522.3l0.2,9.3h1.3l-0.2-7.9l8.3,7.7l0.9-1l0,0l-9.3-8.6l0-6.8l7.7,7.5l0.9-1l0,0L3.4,513L3,494l4.7,5v2.1
		l-2.1,1.1l0.6,1.2l1.5-0.8l0.2,7.2h1.3L9,501.9l0.9-0.5l3.1,3.3l-0.6,1.8l1.3,0.4l0.4-1.1l2.7,2.9l1-0.9l0,0l-3.2-3.4l1.6-4.8h0.5
		l4.2,6.7l1.1-0.7l-3.7-5.9h0.6v-1.3l0,0h-1.5l-0.6-0.9l2.7-8.4l9.7,16.6l-5.8,10.5l1.2,0.7l5.4-9.8l2.9,5l-0.4-0.1l-4.6,13.6
		l1.3,0.4l4.2-12.5l0.5,0.1l4.7,8l1.2-0.7l-4-6.9l11,2.7l0.3-1.3l-12.3-3.1l-3.3-5.7l10.3,2.8l0.4-1.3l0,0L30.6,505L21,488.5
		l6.5,2.1l0.8,1.3l-1.5,2.3l1.1,0.7l1.1-1.7l3.9,6.7l1.2-0.7l-4.2-7.3l0.3-0.5l4.3,1.4l0.4,1.9l1.3-0.3l-0.2-1.1l4.3,1.4l0.4-1.3
		l0,0l-5-1.6l-0.9-4.6l0.8-0.4l6.5,3.6l0.6-1.2l-5.7-3.1l0.6-0.3l-0.6-1.2l0,0l-1.4,0.7l-1.3-0.7l-1.7-8.7l16.5,9.8v12h1.3v-11.2
		l5,3l-0.4,0.1l2.6,14.1l1.3-0.2l-2.4-12.9l0.5-0.1l8,4.7l0.7-1.2l-6.8-4.1l11-3l-0.3-1.3l0,0L57.2,489l-5.7-3.4l10.4-2.5l-0.3-1.3
		l0,0l-11.8,2.9l-16.4-9.8l6.7-1.3l9.3,5.5l0.7-1.1l-8-4.8l11.2-2.2l-0.3-1.3l0,0l-6.4,1.3l-0.4-5.9l0.4-0.7l-0.5-0.3l-0.1-1
		l6.3,4.8l0.8-1.1l0,0l-6.2-4.7l7.9-1l-0.2-1.3l-9.3,1.2l-6.8-5.1l16.6-1.2l11.4,8.5l0.8-1.1l0,0l-10.2-7.6l11.4-0.9l7.4,6.7l0.9-1
		l0,0l-6.5-5.8l5.7-0.4l-0.1-1.3l-6,0.5l4.9-8.8l-1.2-0.7l-5.3,9.5L57.2,453l9.1-9.7l-1-0.9l-10.1,10.8l-16.9,1.3l6.4-8.3H45
		l1.6,2.5l1.1-0.7l-1.3-2l7.9-1.1l-0.2-1.3l-8.3,1.1l2.7-3.5l2.2,0.3l0.2-1.3l0,0l-1.4-0.2l2.9-3.7l-1.1-0.8l-3.4,4.3l-4-0.6
		l-0.1-0.6l5.8-4.2l-0.8-1.1l-5.3,3.8l-0.3-1.7l-1.3,0.2l0.4,2.3l-1.1,0.8l-8.4-1.2l13.9-9.2l14.1,1.9l0.2-1.3l0,0l-12.6-1.7
		l9.6-6.3l9.7,2.2l0.3-1.3l0,0l-8.5-1.9l4.8-3.1l-0.7-1.1l-5,3.3v-10h-1.3v10.9l-9.6,6.3l3.2-12.9l-1.3-0.3L46,427.4l-14.1,9.3
		l1.6-10.4l0.7-0.5l2.4,1.3l0.6-1.2l0,0l-1.8-1l5.9-4.4l-0.8-1.1l-6.4,4.8L34,424l0.7-4.4l2.2-0.8l-0.5-1.3l-1.5,0.6l0.7-4.2
		l-1.3-0.2l-0.8,5l-4.1,1.6l-0.1-0.2l3.2-7l-1.2-0.6l-2.9,6.4l-1.1-1.3l-1,0.8l1.5,1.8l-0.3,0.7l-7.9,3l7.8-14.8l13.3-5.2l-0.5-1.3
		l-11.8,4.6l5.3-10.1l9.6-2.8l-0.4-1.3l0,0l-8.3,2.4l2.6-5l-1.2-0.6l-2.8,5.3l-4.8-8.8l-1.2,0.6l5.3,9.6l-5.3,10.1l-3.4-12.9
		l-1.3,0.3l3.8,14.3l-7.9,15l-3.6-9.8l0.3-0.8l3.2-0.1v-1.3h-2.5l3-6.7l-1.2-0.5l-3.3,7.3H14l-1.4-3.8l1.8-2.2l-1-0.9l0,0l-1.3,1.6
		l-1.6-4.4l-1.3,0.5l1.9,5.1l-2.6,3.1H8.4l-0.6-7.8l-1.3,0.1l0.5,7.2l-2-0.8l-0.5,1.2l0,0l2.6,1.1v0.7l-5.5,6.5L0.9,402l9.1-10.9
		l-1-0.9l0,0L0.9,400l-0.3-11.4l7-7.1l-0.9-0.9l0,0l-6.1,6.1L0.5,381H0v39.8l0,0l0.3,13.7c-0.1-0.1-0.2-0.2-0.3-0.3v1.2
		c0.1,0.1,0.3,0.2,0.4,0.3l0.2,10.8c-0.2-0.1-0.4-0.3-0.6-0.4v1.2c0.3,0.2,0.5,0.4,0.6,0.5l0.1,5.6c-0.1,0-0.2,0-0.3,0.1L0,452.7
		v8.2l0.6-1.2c0.1,0,0.2,0,0.3,0l0.1,6.4l-1,0.5v1.1l1.1-0.5l0.2,9.7L0,477.5v1.1l1.3-0.6l0.3,14L0,493.5v1.8l1.7-1.6l0.4,19.2
		L0,514.4v1.6l2.1-1.3l0.1,5.8L2,520.1l-2,1.8v1.8l2-1.8L2.3,522.3z M47.1,441l-2,2.6l-0.4-0.6l-0.4-2.5L47.1,441z M2.4,467.1l6.2,3
		l7.4,12.7l-13.4-6.5L2.4,467.1z M4.5,456.3l5.5-3.6l6,3.4L4.5,457c0-0.1,0-0.3,0-0.4C4.6,456.5,4.5,456.4,4.5,456.3z M16,457.5
		l-5.2,3.9l-5.3-3.1L16,457.5z M11,463.1l10.2,6.1l-2.5,14.9l-0.4-0.2L10,469.6L11,463.1z M11.6,461.9l6.1-4.6l18.8-1.4l-15.1,11.3
		l-0.1,0.5L11.6,461.9z M17.7,456l-6.8-3.9l9.3-6.1l15.1,8.7L17.7,456z M10,451.1L8.9,444l7.8-14.8l2.5,15.9L10,451.1z M9.1,451.7
		l-5,3.3c-0.2-0.3-0.4-0.5-0.6-0.7l4.6-8.8L9.1,451.7z M3.7,458.8l6.4,3.8l-1,5.7l-5.5-9.4C3.6,458.9,3.7,458.8,3.7,458.8z
		 M10.3,499.8l-0.3-0.4h1L10.3,499.8z M13.6,503.3l-2.4-2.5l2.5-1.3h1.1L13.6,503.3z M15.6,497l-2.3,1.2l-4.7-0.1L3,492l-0.3-14.6
		l14.3,6.9l1.8,3.1L15.6,497z M34.2,491.4l-3.3-1l1.1-1.7l1.5-0.8L34.2,491.4z M32.9,484.9l-1.8,2.8l-3.3,1.7l-7.9-2.5l-0.8-1.4
		l0.3,0.1l2.7-15.8L31,475L32.9,484.9z M45.3,471.2l-3.6,0.7l3.3-5L45.3,471.2z M44.6,461.9l0.2,2.7l-5,7.6l-8.1,1.6l-9.4-5.6
		l0.1-0.5l15.1-11.3L44.6,461.9z M41.2,440.1l2.2,3.4l0.3,1.8l-7,9l-15.7-9l10.3-6.7L41.2,440.1z M33.2,420.1l-0.5,3.2l-1.5-0.8
		l-1-1.3L33.2,420.1z M18.4,425.8l9.3-3.5l2.6,1.4l2,2.5l-1.8,11.5L20,444.5l-2.6-16.8L18.4,425.8z M11.3,409l1,2.7h-1.6l-1.2-0.5
		L11.3,409z M1.4,420.7l6.4-7.6h2.5l2.8,1.2l4,11l-1.6,3l-14,7.2L1.4,420.7z M1.7,436.5l13.2-6.8l-7.6,14.5L2,446.9L1.7,436.5z
		 M2.1,453.5L2,448l4.5-2.3l-4.1,7.9C2.3,453.5,2.2,453.5,2.1,453.5z M2.2,459.7c0.1,0,0.1,0,0.2-0.1l5.3,9.1l-5.4-2.6L2.2,459.7z"></path>
	<polygon points="3.6,736.1 3.6,736.1 0,732.6 0,734.5 2.7,737.1 	"></polygon>
	<polygon points="4.4,744.8 4.4,744.8 0,740.7 0,742.5 3.5,745.8 	"></polygon>
	<polygon points="0.5,604.7 0.5,604.7 0,605.3 0,607.4 1.5,605.6 	"></polygon>
	<path d="M0.6,716.4l0.9-0.5l3.1,3.3L4,721.1l1.3,0.4l0.4-1.1l2.7,2.9l1-0.9l0,0L6.2,719l1.6-4.8h0.5l4.2,6.7l1.1-0.7
		l-3.7-5.9h0.6V713l0,0H9l-0.6-0.9l2.7-8.4l9.7,16.6L15,730.6l1.2,0.7l5.4-9.8l2.9,5l-0.4-0.1L19.6,740l1.3,0.4L25,728l0.5,0.1
		l4.7,8l1.2-0.7l-4-6.9l11,2.7l0.3-1.3l-12.3-3.1l-3.3-5.7l10.3,2.8l0.4-1.3l0,0l-11.7-3.2l-9.6-16.5L19,705l0.8,1.3l-1.5,2.3
		l1.1,0.7l1.1-1.7l3.9,6.7l1.2-0.7l-4.2-7.3l0.3-0.5l4.3,1.4l0.4,1.9l1.3-0.3l-0.2-1.1l4.3,1.4l0.4-1.3l0,0l-5-1.6l-0.9-4.6l0.8-0.4
		l6.5,3.6l0.6-1.2l-5.7-3.1l0.6-0.3l-0.6-1.2l0,0l-1.4,0.7l-1.3-0.7l-1.7-8.7l16.5,9.8v12h1.3v-11.2l5,3l-0.4,0.1l2.6,14.1l1.3-0.2
		L48,705.1l0.5-0.1l8,4.7l0.7-1.2l-6.8-4.1l11-3l-0.3-1.3l0,0l-12.2,3.3l-5.7-3.4l10.4-2.5l-0.3-1.3l0,0l-11.8,2.9l-16.4-9.8
		l6.7-1.3l9.3,5.5l0.7-1.1l-8-4.8l11.2-2.2l-0.3-1.3l0,0l-6.4,1.3l-0.4-5.9l0.4-0.7l-0.5-0.3l-0.1-1l6.3,4.8l0.8-1.1l0,0l-6.2-4.7
		l7.9-1l-0.2-1.3l-9.3,1.2l-6.8-5.1l16.6-1.2l11.4,8.5l0.8-1.1l0,0l-10.2-7.6l11.4-0.9l7.4,6.7l0.9-1l0,0l-6.5-5.8l5.7-0.4l-0.1-1.3
		l-6,0.5l4.9-8.8l-1.2-0.7l-5.3,9.5l-11.4,0.9l9.1-9.7l-1-0.9l-10.1,10.8L29.9,669l6.4-8.3h0.3l1.6,2.5l1.1-0.7l-1.3-2l7.9-1.1
		l-0.2-1.3l-8.3,1.1l2.7-3.5l2.2,0.3l0.2-1.3l0,0l-1.4-0.2l2.9-3.7l-1.1-0.8l-3.4,4.3l-4-0.6l-0.1-0.6l5.8-4.2l-0.8-1.1l-5.3,3.8
		l-0.3-1.7l-1.3,0.2l0.4,2.3l-1.1,0.8l-8.4-1.2l13.9-9.2l14.1,1.9l0.2-1.3l0,0L40,641.7l9.6-6.3l9.7,2.2l0.3-1.3l0,0l-8.5-1.9
		l4.8-3.1l-0.7-1.1l-5,3.3v-10h-1.3v10.9l-9.6,6.3l3.2-12.9l-1.3-0.3l-3.6,14.4l-14.1,9.3l1.6-10.4l0.7-0.5l2.4,1.3l0.6-1.2l0,0
		l-1.8-1l5.9-4.4l-0.8-1.1l-6.4,4.8l-0.2-0.1l0.7-4.4l2.2-0.8l-0.5-1.3l-1.5,0.6l0.7-4.2l-1.3-0.2l-0.8,5l-4.1,1.6l-0.1-0.2l3.2-7
		l-1.2-0.6l-2.9,6.4l-1.1-1.3l-1,0.8l1.5,1.8l-0.3,0.7l-7.9,3l7.8-14.8l13.3-5.2l-0.5-1.3l-11.8,4.6l5.3-10.1l9.6-2.8l-0.4-1.3l0,0
		l-8.3,2.4l2.6-5l-1.2-0.6l-2.8,5.3l-4.8-8.8l-1.2,0.6l5.3,9.6l-5.3,10.1l-3.4-12.9l-1.3,0.3l3.8,14.3l-7.9,15l-3.6-9.8l0.3-0.8
		l3.2-0.1v-1.3H7.3l3-6.7l-1.2-0.5L5.8,626H5.5l-1.4-3.8l1.8-2.2l-1-0.9l0,0l-1.3,1.6L2,616.3l-1.3,0.5l1.9,5.1L0,624.7v2.9h1.8
		l2.8,1.2l4,11l-1.6,3l-7,3.6v1.1l6.4-3.3L0,656.3v6.1l0.6,3.8L0,666.6v1.6l1.5-1l6,3.4L0,671.2v1.3l7.5-0.6l-5.2,3.9L0,674.6v1.6
		l1.6,0.9l-1,5.7l-0.6-1v2.8l0.1,0.1l7.4,12.7L0,693.7v1.1l8.4,4.1l1.8,3.1l-3.1,9.6l-2.3,1.2l-4.7-0.1L0,712.4v11.9h0.8L0.6,716.4z
		 M38.6,655.5l-2,2.6l-0.4-0.6l-0.4-2.5L38.6,655.5z M2.1,626.2l-1.2-0.5l1.9-2.2l1,2.7H2.1z M25.7,705.9l-3.3-1l1.1-1.7l1.5-0.8
		L25.7,705.9z M24.4,699.4l-1.8,2.8l-3.3,1.7l-7.9-2.5l-0.8-1.4l0.3,0.1l2.7-15.8l8.9,5.3L24.4,699.4z M36.8,685.7l-3.6,0.7l3.3-5
		L36.8,685.7z M36.1,676.5l0.2,2.7l-5,7.6l-8.1,1.6l-9.4-5.6l0.1-0.5l15-11.3L36.1,676.5z M32.7,654.6l2.2,3.4l0.3,1.8l-7,9l-15.7-9
		l10.3-6.7L32.7,654.6z M24.7,634.7l-0.5,3.2l-1.5-0.8l-1-1.3L24.7,634.7z M9.9,640.3l9.3-3.5l2.6,1.4l2,2.5L22,652.1L11.5,659
		l-2.6-16.8L9.9,640.3z M1.5,665.6l-1.1-7.1l7.8-14.8l2.5,15.9L1.5,665.6z M2.4,666.6l9.3-6.1l15.1,8.7l-17.6,1.3L2.4,666.6z
		 M9.2,671.9l18.8-1.4l-15,11.3l-0.1,0.5l-9.8-5.8L9.2,671.9z M10.1,698.6l-0.4-0.2l-8.3-14.3l1.1-6.5l10.2,6.1L10.1,698.6z
		 M5.2,714.1h1.1l-1.2,3.7l-2.4-2.5L5.2,714.1z M2.4,714l-0.6,0.3L1.4,714H2.4z"></path>
	<path d="M258.1,6.4l0.4,1.3l10.1-3.1v0.3l-2.8,5.8L263,7.9l-0.9,1l3.2,3.1l-0.2,0.4l1.1,0.5l1.9,1.8l-8.5,0.9l0.1,1.3
		l9.6-1.1l6.4,6.1l-19.2,1.4l-6.9-9.8l-1.1,0.8l6.4,9.2l-5.8,0.4l0.3-0.3l-10.2-10.1l-0.9,1l9.4,9.2l-0.3,0.4l-9.2,0.7l0.1,1.3
		l7.9-0.6l-7.3,8.7l1,0.9l8.1-9.7l6.6-0.5l-7.1,8.1l1,0.9l0,0l8-9.1l19-1.4l-4.7,4.9l-2.1,0.2l-1.2-2.1l-1.2,0.7l0,0l0.9,1.5L260,29
		l0.1,1.3l7.9-0.6l0.5,0.8l-3.1,3.3l-1.9-0.5l-0.3,1.3l1.1,0.3l-2.8,2.9l1,0.9l3.3-3.4l4.9,1.3v0.5l-6.4,4.5l0.8,1.1l5.7-4v0.6h1.3
		l0,0v-1.5l0.9-0.6l8.5,2.3l-16.1,10.6l-10.8-5.3L254,46l10.1,4.9l-4.8,3.2l0.1-0.4l-13.8-3.9l-0.4,1.3l12.7,3.5l-0.1,0.5l-7.7,5.1
		l0.7,1.1l6.6-4.4l-2.2,11.2l1.3,0.3l2.4-12.4l5.5-3.6l-2.3,10.5l1.3,0.3l2.6-11.8l16-10.5l-1.7,6.6l-1.2,0.8l-2.3-1.4L276,48
		l1.8,1.1l-6.5,4.3l0.7,1.1l7.1-4.6l0.5,0.3l-1.2,4.4l-1.8,0.4l0.3,1.3L278,56l-1.1,4.4l1.3,0.3l1.3-5.1l4.5-1.1l0.5,0.8l-3.2,6.6
		l1.2,0.6l2.8-5.8l0.3,0.6l1.2-0.7l0,0l-0.8-1.4l0.7-1.4l8.6-2.1l-9,17l-12,0.6l0.1,1.3l11.2-0.6l-2.7,5.1l-0.1-0.4l-14,3.3l0.3,1.3
		l12.8-3L282,77l-4.3,8.2l1.2,0.6l3.7-7l3.5,10.8l1.3-0.4l-3.9-12.1l3.1-5.9l3.1,10.3l1.3-0.4l0,0l-3.5-11.6l8.9-16.9l1.7,6.6
		l-0.7,1.3l-2.3-0.1v1.3l0,0h1.6l-3.6,6.9l1.2,0.6l3.9-7.5h0.6l1.2,4.8l-1,0.9l0.9,1l0.2-0.2V59l-0.7-0.4l-2-8l2.4-4.7L300,46v-3.3
		l-1.1,2.1L298,30.3l2-1.3v-1.6l-2.8,1.9l-15.3-6.4l16.7-1.3l1.4,0.6v-2l0,0l0,0v-1.3l-1.6,1.5l-15.7,1.2L296,9.2l3.9,2.3V9.8
		L297,8.1l0.3-0.3V7.6L297.2,0h-1l0.2,7.4l-0.2,0.2L283.4,0h-4.6l-8.7,2.7L264.9,0H262l6.4,3.3L258.1,6.4z M270.5,30.5v0.9l-0.3-0.6
		L270.5,30.5z M266.9,34.3l2.4-2.5l1.4,2.3v1.1L266.9,34.3z M279.9,54.2l0.9-3.4l1.7,1l0.9,1.5L279.9,54.2z M298,46.5l-1.9,3.7
		l-9.8,2.4l-3-1.7l-1.8-3.1l2.1-8L297,31L298,46.5z M296.2,29.9L283,38.6l-9.7-2.6l-1.3-2.2l-0.1-4.6l5.7-6l2.2-0.2L296.2,29.9z
		 M270.5,4l11.2-3.5l13.5,8l-14,13l-3.7,0.3l-7.2-7L270,5.1L270.5,4z M268.9,13.5l-2-1.9l1.8-3.8L268.9,13.5z"></path>
	<path d="M244.8,129.5l0.9-1l0,0l-6.5-5.8l5.7-0.4l-0.1-1.3l-6,0.5l4.9-8.8l-1.2-0.7l-5.3,9.5l-11.4,0.9l9.1-9.7l-1-0.9
		l-10.1,10.8l-16.9,1.3l6.4-8.3h0.3l1.6,2.5l1.1-0.7l-1.3-2l7.9-1.1l-0.2-1.3l-8.3,1.1l2.7-3.5l2.2,0.3l0.2-1.3l0,0l-1.4-0.2
		l2.9-3.7l-1.1-0.8l-3.4,4.3l-4-0.6l-0.1-0.6l5.8-4.2l-0.8-1.1l-5.3,3.8l-0.3-1.7l-1.3,0.2l0.4,2.3l-1.1,0.8l-8.4-1.2l13.9-9.2
		l14.1,1.9l0.2-1.3l0,0L217,96.6l9.6-6.3l9.7,2.2l0.3-1.3l0,0l-8.5-1.9l4.8-3.1l-0.7-1.1l-5,3.3v-10h-1.3v10.9l-9.6,6.3l3.2-12.9
		l-1.3-0.3l-3.6,14.4l-14.1,9.3l1.6-10.4L203,95l2.4,1.3l0.6-1.2l0,0l-1.8-1l5.9-4.4l-0.8-1.1l-6.4,4.8l-0.2-0.1l0.7-4.4l2.2-0.8
		l-0.5-1.3l-1.5,0.6l0.7-4.2L203,83l-0.8,5l-4.1,1.6l-0.1-0.2l3.2-7l-1.2-0.6l-2.9,6.4l-1.1-1.3l-1,0.8l1.5,1.8l-0.3,0.7l-7.9,3
		l7.8-14.8l13.3-5.2l-0.5-1.3l-11.8,4.6l5.3-10.1l9.6-2.8l-0.4-1.3l0,0l-8.3,2.4l2.6-5l-1.2-0.6l-2.8,5.3l-4.8-8.8l-1.2,0.6l5.3,9.6
		l-5.3,10.1L192,63.3l-1.3,0.3l3.8,14.3l-7.9,15L183,83l0.3-0.8l3.2-0.1v-1.3H184l3-6.7l-1.2-0.5l-3.3,7.3h-0.3l-1.4-3.8l1.8-2.2
		l-1-0.9l0,0l-1.3,1.6l-1.6-4.4l-1.3,0.5l1.9,5.1l-2.6,3.1h-0.1l-0.6-7.8l-1.3,0.1l0.5,7.2l-2-0.8l-0.5,1.2l0,0l2.6,1.1v0.7
		l-5.5,6.5l-0.4-16.7l9.1-10.9l-1-0.9l0,0l-8.1,9.8L169.1,58l7-7.1l-0.9-0.9l0,0l-6.1,6.1l-0.1-5.7h-1.3l0.1,6l-8.5-5.4l-0.7,1.1
		l9.3,5.8l0.3,11.4l-9.3-9.6l-1,0.9l10.3,10.7l0.4,16.9l-8-6.8v-0.3l2.6-1.5l-0.7-1.2l-2.1,1.2l-0.7-7.9l-1.3,0.1l0.7,8.3l-3.3-2.8
		l0.4-2.2l-1.3-0.3l-0.3,1.4l-3.6-3.1l-0.9,1l4.2,3.6l-0.8,3.9l-0.6,0.1l-3.9-6l-1.1,0.7l3.5,5.4l-1.7,0.2l0.2,1.3l2.4-0.3l0.7,1.1
		l-1.6,8.3L143,78l2.7-14l-1.3-0.2l0,0L142,76.3l-5.8-9.9l2.7-9.6l-1.3-0.4l-2.4,8.4l-2.9-4.9l-1.2,0.7l3,5.2l-10-0.6l-0.1,1.3
		l10.9,0.6l5.8,9.9l-12.8-3.9l-0.4,1.3l14.2,4.3l8.5,14.6l-10.3-2.1l-0.5-0.7l1.4-2.3l-1.2-0.7l0,0l-1.1,1.8l-4.1-6.2l-1.1,0.7
		l4.5,6.7l-0.1,0.2l-4.4-0.9l-0.7-2.2l-1.3,0.4l0.5,1.5l-4.2-0.9l-0.3,1.3l5,1l1.3,4.2l-0.2,0.1l-6.7-3.6l-0.6,1.2l6.1,3.2l-1.4,1
		l0.8,1.1l1.9-1.4l0.8,0.4l2.6,8.1l-14.3-8.5l-4.5-13.5l-1.3,0.4l0,0l4,12l-9.8-5.8l-2.3-9.7l-1.3,0.3l2,8.5l-4.9-2.9l-0.7,1.2
		l5.2,3.1l-9,4.4l0.6,1.2l9.8-4.8l9.8,5.8l-13.1,2.8l0.3,1.3l14.5-3.1l14.5,8.6l-10,3.1l-8.6-4.5l-0.6,1.2l7.4,3.8l-10.2,3.2
		l0.4,1.3l10.1-3.1v0.3l-2.8,5.8l-2.9-2.8l-0.9,1l3.2,3.1l-0.2,0.4l1.1,0.5l1.9,1.8l-8.5,0.9l0.1,1.3l9.6-1.1l6.4,6.1l-19.2,1.4
		l-6.9-9.8l-1.1,0.8l6.4,9.2l-5.8,0.4l0.3-0.3l-10.2-10.1l-0.9,1l9.4,9.2l-0.3,0.4l-9.2,0.7l0.1,1.3l7.9-0.6l-7.3,8.7l1,0.9l8.1-9.7
		l6.6-0.5l-7.1,8.1l1,0.9l0,0l8-9.1l19-1.4l-4.7,4.9l-2.1,0.2l-1.2-2.1l-1.2,0.7l0,0l0.9,1.5l-7.2,0.5l0.1,1.3l7.9-0.6l0.5,0.8
		l-3.1,3.3l-1.9-0.5l-0.3,1.3l1.1,0.3l-2.8,2.9l1,0.9l3.3-3.4l4.9,1.3v0.5l-6.4,4.5l0.8,1.1l5.7-4v0.6h1.3l0,0v-1.5l0.9-0.6l8.5,2.3
		L122,157.6l-10.8-5.3l-0.6,1.2l10.1,4.9l-4.8,3.2l0.1-0.4l-13.8-3.9l-0.4,1.3l12.7,3.5l-0.1,0.5l-7.7,5.1l0.7,1.1l6.6-4.4
		l-2.2,11.2l1.3,0.3l2.4-12.4l5.5-3.6l-2.3,10.5l1.3,0.3l2.6-11.8l16-10.5l-1.7,6.6l-1.2,0.8l-2.3-1.4l-0.7,1.2l1.8,1.1L128,161
		l0.7,1.1l7.1-4.6l0.5,0.3L135,162l-1.8,0.4l0.3,1.3l1.1-0.3l-1.1,4.4l1.3,0.3l1.3-5.1l4.5-1.1l0.5,0.8l-3.2,6.6l1.2,0.6l2.8-5.8
		l0.3,0.6l1.2-0.7l0,0l-0.8-1.4l0.7-1.4l8.6-2.1l-9,17l-12,0.6l0.1,1.3l11.2-0.6l-2.7,5.1l-0.1-0.4l-14,3.3l0.3,1.3l12.8-3l0.2,0.5
		l-4.3,8.2l1.2,0.6l3.7-7l3.5,10.8l1.3-0.4l-3.9-12.1l3.1-5.9l3.1,10.3l1.3-0.4l0,0l-3.5-11.6l8.9-16.9l1.7,6.6l-0.7,1.3l-2.3-0.1
		v1.3l0,0h1.6l-3.6,6.9l1.2,0.6l3.9-7.5h0.6l1.2,4.8l-1,0.9l0.9,1l0.5-0.4l1,4l1.3-0.3l0,0l-1.2-4.7l3.6-3.4l1,0.6l0.4,7.1l1.3-0.1
		l-0.4-6.2l0.1,0.1l0.7-1.2l0,0l-0.9-0.5l-0.1-1.8l6.5-6l0.4,19.2l-10.2,6.4l0.7,1.1l9.5-5.9l0.1,5.8l-0.3-0.3l-10.6,9.7l0.9,1
		l9.7-8.9l0.4,0.3l0.2,9.3h1.3l-0.2-7.9l8.3,7.7l0.9-1l0,0l-9.3-8.6l-0.1-6.6l7.7,7.5l0.9-1l0,0l-8.7-8.5l-0.4-19.1l4.7,5v2.1
		l-2.1,1.1l0.6,1.2l1.5-0.8l0.2,7.2h1.3l-0.2-7.9l0.9-0.5l3.1,3.3l-0.6,1.8l1.3,0.4l0.4-1.1l2.7,2.9l1-0.9l0,0l-3.2-3.4l1.6-4.8h0.5
		l4.2,6.7l1.1-0.7l-3.7-5.9h0.6v-1.3l0,0H186l-0.6-0.9l2.7-8.4l9.7,16.6l-5.8,10.5l1.2,0.7l5.4-9.8l2.9,5l-0.4-0.1l-4.6,13.6
		l1.3,0.4l4.2-12.5l0.5,0.1l4.7,8l1.2-0.7l-4-6.9l11,2.7l0.3-1.3l-12.3-3.1l-3.3-5.7l10.3,2.8l0.4-1.3l0,0l-11.7-3.2l-9.6-16.5
		l6.5,2.1l0.8,1.3l-1.5,2.3l1.1,0.7l1.1-1.7l3.9,6.7l1.2-0.7l-4.2-7.3l0.3-0.5l4.3,1.4l0.4,1.9l1.3-0.3l-0.2-1.1l4.3,1.4l0.4-1.3
		l0,0l-5-1.6l-0.9-4.6l0.8-0.4l6.5,3.6l0.6-1.2l-5.7-3.1l0.6-0.3l-0.6-1.2l0,0l-1.4,0.7l-1.3-0.7l-1.7-8.7l16.5,9.8v12h1.3v-11.2
		l5,3l-0.4,0.1l2.6,14.1l1.3-0.2l-2.4-12.9l0.5-0.1l8,4.7l0.7-1.2l-6.8-4.1l11-3L238,155l0,0l-12.2,3.3l-5.7-3.4l10.4-2.5l-0.3-1.3
		l0,0l-11.8,2.9l-16.4-9.8l6.7-1.3l9.3,5.5l0.7-1.1l-8-4.8l11.2-2.2l-0.3-1.3l0,0l-6.4,1.3l-0.4-5.9l0.4-0.7l-0.5-0.3l-0.1-1
		l6.3,4.8l0.8-1.1l0,0l-6.2-4.7l7.9-1l-0.2-1.3l-9.3,1.2l-6.8-5.1l16.6-1.2l11.4,8.5l0.8-1.1l0,0l-10.2-7.6l11.4-0.9L244.8,129.5z
		 M190,137.1l-9.8-5.8l6.1-4.6l18.8-1.4L190,136.6V137.1z M186.8,153.2l-8.3-14.3l1.1-6.5l10.2,6.1l-2.5,14.9L186.8,153.2z
		 M186.3,125.3l-6.8-3.9l9.3-6.1l15.1,8.7L186.3,125.3z M172.1,123.5l4.6-8.8l1,6.3l-5,3.3C172.5,124,172.3,123.7,172.1,123.5z
		 M170.9,122.9c-0.1,0-0.2-0.1-0.2-0.1l-0.1-5.5l4.5-2.3L170.9,122.9z M169.4,122.7c-0.1,0-0.2,0-0.3,0.1l-5-8.6
		c2.6,1,4.5,2.3,5.2,2.9L169.4,122.7z M167.9,123.4c-0.1,0.1-0.2,0.2-0.3,0.3l-4.6-2.8l-0.2-6.3L167.9,123.4z M166.9,124.9
		c-0.2,0.7-0.1,1.2-0.1,1.9l-10.2,0.8l5.8-5.3L166.9,124.9z M166.8,128.1l-4.4,2.9l-5.1-2.2L166.8,128.1z M167.6,129.2l-4.1,7.8
		l-0.3-4.9L167.6,129.2z M169.2,129c0.1,0,0.2,0,0.3,0l0.1,6.4l-5.1,2.3L169.2,129z M170.8,129c0.1,0,0.1,0,0.2-0.1l5.3,9.1
		l-5.4-2.6L170.8,129z M172.2,128.2l0.1-0.1l6.4,3.8l-1,5.7L172.2,128.2z M174.1,127.6l10.5-0.8l-5.2,3.9L174.1,127.6z M173.1,126.3
		c0-0.2,0-0.5,0-0.7l5.5-3.6l6,3.4L173.1,126.3z M178.6,120.4l-1.1-7.1l7.8-14.8l2.5,15.9L178.6,120.4z M175.9,113.5l-5.3,2.7
		l-0.2-10.5l13.2-6.8L175.9,113.5z M169.2,115.9c-1.1-0.8-3.2-2.1-5.9-2.9l-9-15.4c7.6,2.1,12.8,5.9,14.6,7.5L169.2,115.9z
		 M154.1,115l-0.5-16l8.1,13.9l0.2,7.5l-8.2-4.9l0.3-0.3L154.1,115z M161.5,121.7l-6.4,6l-15.7,1.2l13.3-12.4L161.5,121.7z
		 M155.2,129l6.3,2.6l-7.7,5.1l-15.3-6.4L155.2,129z M162.3,132.7l0.4,5.9l-7.1,13.6l-0.9-14.5L162.3,132.7z M163.9,139.2l5.8-2.7
		l0.2,9.7l-12.8,6L163.9,139.2z M171,136.5l6.2,3l7.4,12.7l-13.4-6.5L171,136.5z M215.7,110.3l-2,2.6l-0.4-0.6l-0.4-2.5L215.7,110.3
		z M209.8,109.4l2.2,3.4l0.3,1.8l-7,9l-15.7-9l10.3-6.7L209.8,109.4z M201.8,89.5l-0.5,3.2l-1.5-0.8l-1-1.3L201.8,89.5z M196.4,91.5
		l2.6,1.4l2,2.5l-1.8,11.5l-10.5,6.9L186,97l1-2L196.4,91.5z M179.9,78.3l1,2.7h-1.6l-1.2-0.5L179.9,78.3z M176.4,82.4h2.5l2.8,1.2
		l4,11l-1.6,3l-14,7.2L170,90L176.4,82.4z M155.6,78.9l2.5,2.2l-0.5,0.3l-2.5,0.3L155.6,78.9z M154.5,84.7l3.6-2.1l1.7-0.2l8.9,7.6
		l0.3,13.7c-2.4-1.9-7.8-5.5-15.3-7.4l-1.1-1.9L154.5,84.7z M134.1,91.7l3.2,0.7l-0.8,1.4l-1.4,1L134.1,91.7z M135.9,97.2l1.6-2.6
		l2.4-1.7l11.4,2.4l1.2,2.1l0.5,17.5l-0.2,0.2l-13.9-8.3L135.9,97.2z M125.3,115.2l0.1,5.7l-2-1.9L125.3,115.2z M126.9,122.2
		l-0.2-9.7l0.5-1.1l11.2-3.5l13.5,8l-14,13l-3.7,0.3L126.9,122.2z M127.1,137.9v0.9l-0.3-0.6L127.1,137.9z M123.5,141.7l2.4-2.5
		l1.4,2.3v1.1L123.5,141.7z M129.9,143.4l-1.3-2.2l-0.1-4.6l5.7-6l2.2-0.2l16.5,6.9l-13.2,8.7L129.9,143.4z M136.5,161.6l0.9-3.4
		l1.7,1l0.9,1.5L136.5,161.6z M142.9,160l-3-1.7l-1.8-3.1l2.1-8l13.4-8.8l0.9,15.5l-1.9,3.7L142.9,160z M157.6,173.1l-0.9-3.7
		l1.9,0.1l1.8,1.1L157.6,173.1z M162.9,168.2l-3.9-0.1l-3.1-1.8l-2-8l2.4-4.7l13.6-6.3l0.3,14.1L162.9,168.2z M178.5,168.8h1
		l-0.6,0.3L178.5,168.8z M182.2,172.6l-2.4-2.5l2.5-1.3h1.1L182.2,172.6z M184.2,166.3l-2.3,1.2l-4.7-0.1l-5.7-6l-0.3-14.6l14.3,6.9
		l1.8,3.1L184.2,166.3z M202.8,160.7l-3.3-1l1.1-1.7l1.5-0.8L202.8,160.7z M201.5,154.2l-1.8,2.8l-3.3,1.7l-7.9-2.5l-0.8-1.4
		l0.3,0.1l2.7-15.8l8.9,5.3L201.5,154.2z M213.9,140.5l-3.6,0.7l3.3-5L213.9,140.5z M213.4,134l-5,7.6l-8.1,1.6l-9.4-5.6l0.1-0.5
		l15.1-11.3l7.2,5.5L213.4,134z"></path>
	<path d="M232.9,349.2l0.9-1l0,0l-6.5-5.8l5.7-0.4l-0.1-1.3l-6,0.5l4.9-8.8l-1.2-0.7l-5.3,9.5l-11.4,0.9l9.1-9.7l-1-0.9
		l-10.1,10.8l-16.9,1.3l6.4-8.3h0.3l1.6,2.5l1.1-0.7l-1.3-2l7.9-1.1l-0.2-1.3l-8.3,1.1l2.7-3.5l2.2,0.3l0.2-1.3l0,0l-1.4-0.2
		l2.9-3.7l-1.1-0.8l-3.4,4.3l-4-0.6l-0.1-0.6l5.8-4.2l-0.8-1.1l-5.3,3.8l-0.3-1.7l-1.3,0.2l0.4,2.3l-1.1,0.8l-8.4-1.2l13.9-9.2
		l14.1,1.9l0.2-1.3l0,0l-12.6-1.7l9.6-6.3l9.7,2.2l0.3-1.3l0,0l-8.5-1.9l4.8-3.1l-0.7-1.1l-5,3.3v-10H214V309l-9.6,6.3l3.2-12.9
		l-1.3-0.3l-3.6,14.4l-14.1,9.3l1.6-10.4l0.7-0.5l2.4,1.3l0.6-1.2l0,0l-1.8-1l5.9-4.4l-0.8-1.1l-6.4,4.8l-0.2-0.1l0.7-4.4l2.2-0.8
		l-0.5-1.3l-1.5,0.6l0.7-4.2l-1.3-0.2l-0.8,5l-4.1,1.6l-0.1-0.2l3.2-7l-1.2-0.6l-2.9,6.4l-1.1-1.3l-1,0.8l1.5,1.8L184,310l-7.9,3
		l7.8-14.8l13.3-5.2l-0.5-1.3l-11.8,4.6l5.3-10.1l9.6-2.8l-0.4-1.3l0,0l-8.3,2.4l2.6-5l-1.2-0.6l-2.8,5.3l-4.8-8.8l-1.2,0.6l5.3,9.6
		l-5.3,10.1l-3.4-12.9l-1.3,0.3l3.8,14.3l-7.9,15l-3.6-9.8l0.3-0.8l3.2-0.1v-1.3h-2.5l3-6.7l-1.2-0.5l-3.3,7.3h-0.3l-1.4-3.8
		l1.8-2.2l-1-0.9l0,0l-1.3,1.6l-1.6-4.4l-1.3,0.5l1.9,5.1l-2.6,3.1h-0.1l-0.6-7.8l-1.3,0.1l0.5,7.2l-2-0.8l-0.5,1.2l0,0l2.6,1.1v0.7
		l-5.5,6.5l-0.4-16.7l9.1-10.9l-1-0.9l0,0l-8.1,9.8l-0.3-11.4l7-7.1l-0.9-0.9l0,0l-6.1,6.1l-0.1-5.7H156l0.1,6l-8.5-5.4l-0.7,1.1
		l9.3,5.8l0.3,11.4l-9.3-9.6l-1,0.9l10.3,10.7l0.4,16.9l-8-6.8v-0.3l2.6-1.5l-0.7-1.2l-2.1,1.2l-0.7-7.9l-1.3,0.1l0.7,8.3l-3.3-2.8
		l0.4-2.2l-1.3-0.3l-0.3,1.4l-3.6-3.1l-0.9,1l4.2,3.6l-0.8,3.9l-0.6,0.1l-3.9-6l-1.1,0.7l3.5,5.4l-1.7,0.2l0.2,1.3l2.4-0.3l0.7,1.1
		l-1.6,8.3l-8.4-14.4l2.7-14l-1.3-0.2l0,0l-2.4,12.5l-5.8-9.9l2.7-9.6l-1.3-0.4l-2.4,8.4l-2.9-4.9l-1.2,0.7l3,5.2l-10-0.6l-0.1,1.3
		l10.9,0.6l5.8,9.9l-12.8-3.9l-0.4,1.3l14.2,4.3l8.5,14.6l-10.3-2.1l-0.5-0.7l1.4-2.3l-1.2-0.7l0,0l-1.1,1.8l-4.1-6.2l-1.1,0.7
		l4.5,6.7l-0.1,0.2l-4.4-0.9l-0.7-2.2l-1.3,0.4l0.5,1.5l-4.2-0.9l-0.3,1.3l5,1l1.3,4.2l-0.2,0.1l-6.7-3.6l-0.6,1.2l6.1,3.2l-1.4,1
		l0.8,1.1l1.9-1.4l0.8,0.4l2.6,8.1l-14.3-8.5l-4.5-13.5l-1.3,0.4l0,0l4,12l-9.8-5.8l-2.3-9.7l-1.3,0.3l2,8.5l-4.9-2.9l-0.7,1.2
		l5.2,3.1l-9,4.4l0.6,1.2l9.8-4.8l9.8,5.8l-13.1,2.8l0.3,1.3l14.5-3.1l14.5,8.6l-10,3.1l-8.6-4.5l-0.6,1.2l7.4,3.8l-10.2,3.2
		l0.4,1.3l10.1-3.1v0.3l-2.8,5.8l-2.9-2.8l-0.9,1l3.2,3.1l-0.2,0.4l1.1,0.5l1.9,1.8l-8.5,0.9l0.1,1.3l9.6-1.1l6.4,6.1l-19.2,1.4
		l-6.9-9.8l-1.1,0.8l6.4,9.2l-5.8,0.4l0.3-0.3L83.7,340l-0.9,1l9.4,9.2l-0.3,0.4l-9.2,0.7l0.1,1.3l7.9-0.6l-7.3,8.7l1,0.9l8.1-9.7
		l6.6-0.5l-7.1,8.1l1,0.9l0,0l8-9.1l19-1.4l-4.7,4.9l-2.1,0.2l-1.2-2.1l-1.2,0.7l0,0l0.9,1.5l-7.2,0.5l0.1,1.3l7.9-0.6l0.5,0.8
		l-3.1,3.3l-1.9-0.5l-0.3,1.3l1.1,0.3l-2.8,2.9l1,0.9l3.3-3.4l4.9,1.3v0.5l-6.4,4.5l0.8,1.1l5.7-4v0.6h1.3l0,0v-1.5l0.9-0.6l8.5,2.3
		l-16.1,10.6L99.3,372l-0.6,1.2l10.1,4.9l-4.8,3.2l0.1-0.4L90.2,377l-0.4,1.3l12.7,3.5l-0.1,0.5l-7.7,5.1l0.7,1.1l6.6-4.4l-2.2,11.2
		l1.3,0.3l2.4-12.4l5.5-3.6l-2.3,10.5l1.3,0.3l2.6-11.8l16-10.5l-1.7,6.6l-1.2,0.8l-2.3-1.4l-0.7,1.2l1.8,1.1l-6.5,4.3l0.7,1.1
		l7.1-4.6l0.5,0.3l-1.2,4.4l-1.8,0.4l0.3,1.3l1.1-0.3l-1.1,4.4l1.3,0.3l1.3-5.1l4.5-1.1l0.5,0.8l-3.2,6.6l1.2,0.6l2.8-5.8l0.3,0.6
		l1.2-0.7l0,0l-0.8-1.4l0.7-1.4l8.6-2.1l-9,17l-12,0.6l0.1,1.3l11.2-0.6l-2.7,5.1l-0.1-0.4l-14,3.3l0.3,1.3l12.8-3l0.2,0.5l-4.3,8.2
		l1.2,0.6l3.7-7l3.5,10.8l1.3-0.4l-3.9-12.1l3.1-5.9l3.1,10.3l1.3-0.4l0,0l-3.5-11.6l8.9-16.9l1.7,6.6l-0.7,1.3l-2.3-0.1v1.3l0,0
		h1.6l-3.6,6.9l1.2,0.6l3.9-7.5h0.6l1.2,4.8l-1,0.9l0.9,1l0.5-0.4l1,4l1.3-0.3l0,0l-1.2-4.7l3.6-3.4l1,0.6l0.4,7.1l1.3-0.1l-0.4-6.2
		l0.1,0.1l0.7-1.2l0,0l-0.9-0.5l-0.1-1.8l6.5-6l0.4,19.2l-10.2,6.4l0.7,1.1l9.5-5.9l0.1,5.8l-0.3-0.3l-10.6,9.7l0.9,1l9.7-8.9
		l0.4,0.3l0.2,9.3h1.3l-0.2-7.9l8.3,7.7l0.9-1l0,0l-9.3-8.6l-0.1-6.6l7.7,7.5l0.9-1l0,0l-8.7-8.5l-0.4-19.1l4.7,5v2.1l-2.1,1.1
		l0.6,1.2l1.5-0.8l0.2,7.2h1.3l-0.2-7.9l0.9-0.5l3.1,3.3l-0.6,1.8l1.3,0.4l0.4-1.1l2.7,2.9l1-0.9l0,0l-3.2-3.4l1.6-4.8h0.5l4.2,6.7
		l1.1-0.7l-3.7-5.9h0.6v-1.3l0,0h-1.5l-0.6-0.9l2.7-8.4l9.7,16.6l-5.8,10.5l1.2,0.7l5.4-9.8l2.9,5l-0.4-0.1l-4.6,13.6l1.3,0.4
		l4.2-12.5l0.5,0.1l4.7,8l1.2-0.7l-4-6.9l11,2.7l0.3-1.3l-12.3-3.1l-3.3-5.7l10.3,2.8l0.4-1.3l0,0l-11.7-3.2l-9.6-16.5l6.5,2.1
		l0.8,1.3l-1.5,2.3l1.1,0.7l1.1-1.7l3.9,6.7l1.2-0.7l-4.2-7.3l0.3-0.5l4.3,1.4l0.4,1.9l1.3-0.3l-0.2-1.1l4.3,1.4l0.4-1.3l0,0l-5-1.6
		l-0.9-4.6l0.8-0.4l6.5,3.6l0.6-1.2l-5.7-3.1l0.6-0.3l-0.6-1.2l0,0l-1.4,0.7l-1.3-0.7l-1.7-8.7l16.5,9.8v12h1.3v-11.2l5,3l-0.4,0.1
		l2.6,14.1l1.3-0.2l-2.4-12.9l0.5-0.1l8,4.7l0.7-1.2l-6.8-4.1l11-3l-0.3-1.3l0,0l-12.2,3.3l-5.7-3.4l10.4-2.5l-0.3-1.3l0,0
		l-11.8,2.9l-16.4-9.8l6.7-1.3l9.3,5.5l0.7-1.1l-8-4.8L210,360l-0.3-1.3l0,0l-6.4,1.3l-0.4-5.9l0.4-0.7l-0.5-0.3l-0.1-1l6.3,4.8
		l0.8-1.1l0,0l-6.2-4.7l7.9-1l-0.2-1.3L202,350l-6.8-5.1l16.6-1.2l11.4,8.5l0.8-1.1l0,0l-10.2-7.6l11.4-0.9L232.9,349.2z
		 M178.1,356.8l-9.8-5.8l6.1-4.6l18.8-1.4l-15.1,11.3V356.8z M174.9,372.9l-8.3-14.3l1.1-6.5l10.2,6.1l-2.5,14.9L174.9,372.9z
		 M174.4,345l-6.8-3.9l9.3-6.1l15.1,8.7L174.4,345z M160.2,343.2l4.6-8.8l1,6.3l-5,3.3C160.6,343.7,160.4,343.5,160.2,343.2z
		 M159,342.6c-0.1,0-0.2-0.1-0.2-0.1l-0.1-5.5l4.5-2.3L159,342.6z M157.5,342.4c-0.1,0-0.2,0-0.3,0.1l-5-8.6c2.6,1,4.5,2.3,5.2,2.9
		L157.5,342.4z M156,343.1c-0.1,0.1-0.2,0.2-0.3,0.3l-4.6-2.8l-0.2-6.3L156,343.1z M155,344.6c-0.2,0.7-0.1,1.2-0.1,1.9l-10.2,0.8
		l5.8-5.3L155,344.6z M154.9,347.8l-4.4,2.9l-5.1-2.2L154.9,347.8z M155.7,348.9l-4.1,7.8l-0.3-4.9L155.7,348.9z M157.3,348.7
		c0.1,0,0.2,0,0.3,0l0.1,6.4l-5.1,2.3L157.3,348.7z M158.9,348.7c0.1,0,0.1,0,0.2-0.1l5.3,9.1l-5.4-2.6L158.9,348.7z M160.3,347.9
		l0.1-0.1l6.4,3.8l-1,5.7L160.3,347.9z M162.1,347.3l10.5-0.8l-5.2,3.9L162.1,347.3z M161.2,346c0-0.2,0-0.5,0-0.7l5.5-3.6l6,3.4
		L161.2,346z M166.7,340.1l-1.1-7.1l7.8-14.8l2.5,15.9L166.7,340.1z M164,333.2l-5.3,2.7l-0.2-10.5l13.2-6.8L164,333.2z
		 M157.3,335.6c-1.1-0.8-3.2-2.1-5.9-2.9l-9-15.4c7.6,2.1,12.8,5.9,14.6,7.5L157.3,335.6z M142.2,334.7l-0.5-16l8.1,13.9l0.2,7.5
		l-8.2-4.9l0.3-0.3L142.2,334.7z M149.6,341.4l-6.4,6l-15.7,1.2l13.3-12.4L149.6,341.4z M143.3,348.7l6.3,2.6l-7.7,5.1l-15.3-6.4
		L143.3,348.7z M150.4,352.4l0.4,5.9l-7.1,13.6l-0.9-14.5L150.4,352.4z M152,358.9l5.8-2.7l0.2,9.7l-12.8,6L152,358.9z M159.1,356.2
		l6.2,3l7.4,12.7l-13.4-6.5L159.1,356.2z M203.8,330l-2,2.6l-0.4-0.6l-0.4-2.5L203.8,330z M197.9,329.1l2.2,3.4l0.3,1.8l-7,9
		l-15.7-9l10.3-6.7L197.9,329.1z M189.9,309.2l-0.5,3.2l-1.5-0.8l-1-1.3L189.9,309.2z M184.5,311.2l2.6,1.4l2,2.5l-1.8,11.5
		l-10.5,6.9l-2.6-16.8l1-2L184.5,311.2z M167.9,298l1,2.7h-1.6l-1.2-0.5L167.9,298z M164.5,302.1h2.5l2.8,1.2l4,11l-1.6,3l-14,7.2
		l-0.3-14.7L164.5,302.1z M143.7,298.6l2.5,2.2l-0.5,0.3l-2.5,0.3L143.7,298.6z M142.6,304.5l3.6-2.1l1.7-0.2l8.9,7.6l0.3,13.7
		c-2.4-1.9-7.8-5.5-15.3-7.4l-1.1-1.9L142.6,304.5z M122.2,311.4l3.2,0.7l-0.8,1.4l-1.4,1L122.2,311.4z M124,317l1.6-2.6l2.4-1.7
		l11.4,2.4l1.2,2.1l0.5,17.5l-0.2,0.2l-13.9-8.3L124,317z M113.4,334.9l0.1,5.7l-2-1.9L113.4,334.9z M115,342l-0.2-9.7l0.5-1.1
		l11.2-3.5l13.5,8l-14,13l-3.7,0.3L115,342z M115.2,357.6v0.9l-0.3-0.6L115.2,357.6z M111.6,361.4l2.4-2.5l1.4,2.3v1.1L111.6,361.4z
		 M118,363.1l-1.3-2.2l-0.1-4.6l5.7-6l2.2-0.2L141,357l-13.2,8.7L118,363.1z M124.6,381.3l0.9-3.4l1.7,1l0.9,1.5L124.6,381.3z
		 M131,379.7l-3-1.7l-1.8-3.1l2.1-8l13.4-8.8l0.9,15.5l-1.9,3.7L131,379.7z M145.7,392.8l-0.9-3.7l1.9,0.1l1.8,1.1L145.7,392.8z
		 M151,387.9l-3.9-0.1L144,386l-2-8l2.4-4.7L158,367l0.3,14.1L151,387.9z M166.6,388.5h1l-0.6,0.3L166.6,388.5z M170.3,392.3
		l-2.4-2.5l2.5-1.3h1.1L170.3,392.3z M172.3,386l-2.3,1.2l-4.7-0.1l-5.7-6l-0.3-14.6l14.3,6.9l1.8,3.1L172.3,386z M190.9,380.4
		l-3.3-1l1.1-1.7l1.5-0.8L190.9,380.4z M189.6,373.9l-1.8,2.8l-3.3,1.7l-7.9-2.5l-0.8-1.4l0.3,0.1l2.7-15.8l8.9,5.3L189.6,373.9z
		 M202,360.2l-3.6,0.7l3.3-5L202,360.2z M201.5,353.7l-5,7.6l-8.1,1.6l-9.4-5.6l0.1-0.5l15.1-11.3l7.2,5.5L201.5,353.7z"></path>
	<path d="M225.5,568.7l0.9-1l0,0l-6.5-5.8l5.7-0.4l-0.1-1.3l-6,0.5l4.9-8.8l-1.2-0.7l-5.3,9.5l-11.4,0.9l9.1-9.7l-1-0.9
		l-10.1,10.8l-16.9,1.3l6.4-8.3h0.3l1.6,2.5l1.1-0.7l-1.3-2l7.9-1.1l-0.2-1.3l-8.3,1.1l2.7-3.5l2.2,0.3l0.2-1.3l0,0l-1.4-0.2
		l2.9-3.7l-1.1-0.8l-3.4,4.3l-4-0.6l-0.1-0.6l5.8-4.2l-0.8-1.1l-5.3,3.8l-0.3-1.7l-1.3,0.2l0.4,2.3l-1.1,0.8l-8.4-1.2l13.9-9.2
		l14.1,1.9l0.2-1.3l0,0l-12.6-1.7l9.6-6.3l9.7,2.2l0.3-1.3l0,0l-8.5-1.9l4.8-3.1l-0.7-1.1l-5,3.3v-10h-1.3v10.9l-9.6,6.3l3.2-12.9
		l-1.3-0.3l-3.6,14.4l-14.1,9.3l1.6-10.4l0.7-0.5l2.4,1.3l0.6-1.2l0,0l-1.8-1l5.9-4.4l-0.8-1.1l-6.4,4.8l-0.2-0.1l0.7-4.4l2.2-0.8
		l-0.5-1.3l-1.5,0.6l0.7-4.2l-1.3-0.2l-0.8,5l-4.1,1.6l-0.1-0.2l3.2-7l-1.2-0.6l-2.9,6.4l-1.1-1.3l-1,0.8l1.5,1.8l-0.3,0.7l-7.9,3
		l7.8-14.8l13.3-5.2l-0.5-1.3l-11.8,4.6l5.3-10.1l9.6-2.8l-0.4-1.3l0,0l-8.3,2.4l2.6-5l-1.2-0.6l-2.8,5.3l-4.8-8.8l-1.2,0.6l5.3,9.6
		l-5.3,10.1l-3.4-12.9l-1.3,0.3l3.8,14.3l-7.9,15l-3.6-9.8l0.3-0.8l3.2-0.1V520H165l3-6.7l-1.2-0.5l-3.3,7.3h-0.3l-1.4-3.8l1.8-2.2
		l-1-0.9l0,0l-1.3,1.6l-1.6-4.4l-1.3,0.5l1.9,5.1l-2.6,3.1h-0.1l-0.6-7.8l-1.3,0.1l0.5,7.2l-2-0.8l-0.5,1.2l0,0l2.6,1.1v0.7
		l-5.5,6.5l-0.4-16.7l9.1-10.9l-1-0.9l0,0l-8.1,9.8l-0.3-11.4l7-7.1L156,489l0,0l-6.1,6.1l-0.1-5.7h-1.3l0.1,6l-8.5-5.4l-0.7,1.1
		l9.3,5.8l0.3,11.4l-9.3-9.6l-1,0.9l10.3,10.7l0.4,16.9l-8-6.8v-0.3l2.6-1.5l-0.7-1.2l-2.1,1.2l-0.7-7.9l-1.3,0.1l0.7,8.3l-3.3-2.8
		l0.4-2.2l-1.3-0.3l-0.3,1.4l-3.6-3.1l-0.9,1l4.2,3.6l-0.8,3.9l-0.6,0.1l-3.9-6l-1.1,0.7l3.5,5.4l-1.7,0.2l0.2,1.3l2.4-0.3l0.7,1.1
		l-1.6,8.3l-8.4-14.4l2.7-14l-1.3-0.2l0,0l-2.4,12.5l-5.8-9.9l2.7-9.6l-1.3-0.4l-2.4,8.4l-2.9-4.9l-1.2,0.7l3,5.2l-10-0.6l-0.1,1.3
		l10.9,0.6l5.8,9.9l-12.8-3.9l-0.4,1.3l14.2,4.3l8.5,14.6l-10.3-2.1l-0.5-0.7l1.4-2.3l-1.2-0.7l0,0l-1.1,1.8l-4.1-6.2l-1.1,0.7
		l4.5,6.7l-0.1,0.2l-4.4-0.9l-0.7-2.2l-1.3,0.4l0.5,1.5l-4.2-0.9l-0.3,1.3l5,1l1.3,4.2l-0.2,0.1l-6.7-3.6l-0.6,1.2l6.1,3.2l-1.4,1
		l0.8,1.1l1.9-1.4l0.8,0.4l2.6,8.1l-14.3-8.5l-4.5-13.5l-1.3,0.4l0,0l4,12l-9.8-5.8l-2.3-9.7l-1.3,0.3l2,8.5l-4.9-2.9l-0.7,1.2
		l5.2,3.1l-9,4.4l0.6,1.2l9.8-4.8l9.8,5.8l-13.1,2.8l0.3,1.3l14.5-3.1l14.5,8.6l-10,3.1l-8.6-4.5l-0.6,1.2l7.4,3.8l-10,3.9l0.4,1.3
		l10.1-3.1v0.3l-2.8,5.8l-2.9-2.8l-0.9,1l3.2,3.1l-0.2,0.4l1.1,0.5l1.9,1.8l-8.5,0.9l0.1,1.3l9.6-1.1l6.4,6.1L93.8,570l-6.9-9.8
		l-1.1,0.8l6.4,9.2l-5.8,0.4l0.3-0.3l-10.2-10.1l-0.9,1l9.4,9.2l-0.3,0.4l-9.2,0.7l0.1,1.3l7.9-0.6l-7.3,8.7l1,0.9l8.1-9.7l6.6-0.5
		l-7.1,8.1l1,0.9l0,0l8-9.1l19-1.4l-4.7,4.9l-2.1,0.2l-1.2-2.1l-1.2,0.7l0,0l0.9,1.5l-7.2,0.5l0.1,1.3l7.9-0.6l0.5,0.8l-3.1,3.3
		l-1.9-0.5l-0.3,1.3l1.1,0.3l-2.8,2.9l1,0.9l3.3-3.4l4.9,1.3v0.5l-6.4,4.5l0.8,1.1l5.7-4v0.6h1.3l0,0v-1.5l0.9-0.6l8.5,2.3
		l-16.1,10.6l-10.8-5.3l-0.6,1.2l10.1,4.9l-4.8,3.2l0.1-0.4l-13.8-3.9l-0.4,1.3l12.7,3.5l-0.1,0.5l-7.7,5.1l0.6,1l6.6-4.4l-2.2,11.2
		l1.3,0.3l2.4-12.4l5.5-3.6l-2.3,10.5l1.3,0.3l2.6-11.8l16-10.5l-1.7,6.6l-1.2,0.8l-2.3-1.4l-0.7,1.2l1.8,1.1l-6.5,4.3l0.7,1.1
		l7.1-4.6l0.5,0.3l-1.2,4.4l-1.8,0.4l0.3,1.3l1.1-0.3l-1.1,4.4l1.3,0.3l1.3-5.1l4.5-1.1l0.5,0.8l-3.2,6.6l1.2,0.6l2.8-5.8l0.3,0.6
		l1.2-0.7l0,0l-0.8-1.4l0.7-1.4l8.6-2.1l-9,17l-12,0.6l0.1,1.3l11.2-0.6l-2.7,5.1l-0.1-0.4l-14,3.3l0.3,1.3l12.8-3l0.2,0.5l-4.3,8.2
		l1.2,0.6l3.7-7l3.5,10.8l1.3-0.4l-3.9-12.1l3.1-5.9l3.1,10.3l1.3-0.4l0,0l-3.5-11.6l8.9-16.9l1.7,6.6l-0.7,1.3l-2.3-0.1v1.3l0,0
		h1.6l-3.6,6.9l1.2,0.6l3.9-7.5h0.6l1.2,4.8l-1,0.9l0.9,1l0.5-0.4l1,4l1.3-0.3l0,0l-1.2-4.7l3.6-3.4l1,0.6l0.4,7.1l1.3-0.1l-0.4-6.2
		l0.1,0.1l0.7-1.2l0,0l-0.9-0.5l-0.1-1.8l6.5-6l0.4,19.2l-10.2,6.4l0.7,1.1l9.5-5.9l0.1,5.8l-0.3-0.3l-10.6,9.7l0.9,1l9.7-8.9
		l0.4,0.3l0.2,9.3h1.3L153,632l8.3,7.7l0.9-1l0,0l-9.3-8.6l-0.1-6.6l7.7,7.5l0.9-1l0,0l-8.7-8.5l-0.4-19.1l4.7,5v2.1l-2.1,1.1
		l0.6,1.2l1.5-0.8l0.2,7.2h1.3l-0.2-7.9l0.9-0.5l3.1,3.3l-0.6,1.8l1.3,0.4l0.4-1.1l2.7,2.9l1-0.9l0,0l-3.2-3.4l1.6-4.8h0.5l4.2,6.7
		l1.1-0.7l-3.7-5.9h0.6v-1.3l0,0h-1.5l-0.6-0.9l2.7-8.4l9.7,16.6l-5.8,10.5l1.2,0.7l5.4-9.8l2.9,5l-0.4-0.1l-4.6,13.6l1.3,0.4
		l4.2-12.5l0.5,0.1l4.7,8l1.2-0.7l-4-6.9l11,2.7l0.3-1.3l-12.3-3.1l-3.3-5.7l10.3,2.8l0.4-1.3l0,0l-11.7-3.2l-9.6-16.5l6.5,2.1
		l0.8,1.3l-1.5,2.3l1.1,0.7l1.1-1.7l3.9,6.7l1.2-0.7l-4.2-7.3l0.3-0.5l4.3,1.4l0.4,1.9l1.3-0.3l-0.2-1.1l4.3,1.4l0.4-1.3l0,0l-5-1.6
		l-0.9-4.6l0.8-0.4l6.5,3.6l0.6-1.2l-5.7-3.1l0.6-0.3l-0.6-1.2l0,0l-1.4,0.7l-1.3-0.7l-1.7-8.7l16.5,9.8v12h1.3v-11l5,3l-0.4,0.1
		l2.6,14.1l1.3-0.2l-2.4-12.9l0.5-0.1l8,4.7l0.7-1.2l-6.8-4.1l11-3l-0.3-1.3l0,0l-12.2,3.3l-5.7-3.4l10.4-2.5l-0.3-1.3l0,0
		l-11.8,2.9l-16.4-9.8l6.7-1.3l9.3,5.5l0.7-1.1l-8-4.8l11.2-2.2l-0.3-1.3l0,0l-6.4,1.3l-0.4-5.9l0.4-0.7l-0.5-0.3l-0.1-1l6.3,4.8
		l0.8-1.1l0,0l-6.2-4.7l7.9-1l-0.2-1.3l-9.3,1.2l-6.8-5.1l16.6-1.2l11.4,8.5l0.8-1.1l0,0l-10.2-7.6l11.4-0.9L225.5,568.7z
		 M170.7,576.2l-9.8-5.8l6.1-4.6l18.8-1.4l-15.1,11.3V576.2z M167.5,592.4l-8.3-14.3l1.1-6.5l10.2,6.1l-2.5,14.9L167.5,592.4z
		 M167,564.5l-6.8-3.9l9.3-6.1l15.1,8.7L167,564.5z M152.8,562.7l4.6-8.8l1,6.3l-5,3.3C153.2,563.2,153,562.9,152.8,562.7z
		 M151.6,562c-0.1,0-0.2-0.1-0.2-0.1l-0.1-5.5l4.5-2.3L151.6,562z M150,561.9c-0.1,0-0.2,0-0.3,0.1l-5-8.6c2.6,1,4.5,2.3,5.2,2.9
		L150,561.9z M148.5,562.6c-0.1,0.1-0.2,0.2-0.3,0.3l-4.6-2.8l-0.2-6.3L148.5,562.6z M147.6,564.1c-0.2,0.7-0.1,1.2-0.1,1.9
		l-10.2,0.8l5.8-5.3L147.6,564.1z M147.5,567.3l-4.4,2.9L138,568L147.5,567.3z M148.3,568.4l-4.1,7.8l-0.3-4.9L148.3,568.4z
		 M149.9,568.2c0.1,0,0.2,0,0.3,0l0.1,6.4l-5.1,2.3L149.9,568.2z M151.5,568.2c0.1,0,0.1,0,0.2-0.1l5.3,9l-5.4-2.6L151.5,568.2z
		 M152.9,567.4l0.1-0.1l6.4,3.8l-1,5.7L152.9,567.4z M154.7,566.8l10.5-0.8l-5.2,3.9L154.7,566.8z M153.8,565.5c0-0.2,0-0.5,0-0.7
		l5.5-3.6l6,3.4L153.8,565.5z M159.2,559.6l-1.1-7.1l7.8-14.8l2.5,15.9L159.2,559.6z M156.5,552.6l-5.3,2.7l-0.2-10.5l13.2-6.8
		L156.5,552.6z M149.9,555.1c-1.1-0.8-3.2-2.1-5.9-2.9l-9-15.4c7.6,2.1,12.8,5.9,14.6,7.5L149.9,555.1z M134.8,554.2l-0.5-16
		l8.1,13.9l0.2,7.5l-8.2-4.9l0.3-0.3L134.8,554.2z M142.2,560.9l-6.4,6L120,568l13.3-12.4L142.2,560.9z M135.9,568.2l6.3,2.6
		l-7.7,5.1l-15.3-6.4L135.9,568.2z M143,571.9l0.4,5.9l-7.1,13.6l-0.9-14.5L143,571.9z M144.5,578.4l5.8-2.7l0.2,9.7l-12.8,6
		L144.5,578.4z M151.7,575.6l6.2,3l7.4,12.7l-13.4-6.5L151.7,575.6z M196.4,549.4l-2,2.6l-0.4-0.6l-0.4-2.5L196.4,549.4z
		 M190.5,548.6l2.2,3.4l0.3,1.8l-7,9l-15.7-9l10.3-6.7L190.5,548.6z M182.5,528.6l-0.5,3.2l-1.5-0.8l-1-1.3L182.5,528.6z M177,530.7
		l2.6,1.4l2,2.5l-1.8,11.5l-10.5,6.9l-2.6-16.8l1-2L177,530.7z M160.5,517.5l1,2.7h-1.6l-1.2-0.5L160.5,517.5z M157.1,521.6h2.5
		l2.8,1.2l4,11l-1.6,3l-14,7.2l-0.3-14.7L157.1,521.6z M136.3,518.1l2.5,2.2l-0.5,0.3l-2.5,0.3L136.3,518.1z M135.1,523.9l3.6-2.1
		l1.7-0.2l8.9,7.6l0.3,13.7c-2.4-1.9-7.8-5.5-15.3-7.4l-1.1-1.9L135.1,523.9z M114.8,530.8l3.2,0.7l-0.8,1.4l-1.4,1L114.8,530.8z
		 M116.6,536.4l1.6-2.6l2.4-1.7l11.4,2.4l1.2,2.1l0.5,17.5l-0.2,0.2l-13.9-8.3L116.6,536.4z M106,554.4l0.1,5.7l-2-1.9L106,554.4z
		 M107.5,561.4l-0.2-9.7l0.5-1.1l11.2-3.5l13.5,8l-14,13l-3.7,0.3L107.5,561.4z M107.8,577.1v0.9l-0.3-0.6L107.8,577.1z
		 M104.2,580.9l2.4-2.5l1.4,2.3v1.1L104.2,580.9z M110.5,582.6l-1.3-2.2l-0.1-4.6l5.7-6l2.2-0.2l16.5,6.9l-13.2,8.7L110.5,582.6z
		 M117.2,600.8l0.9-3.4l1.7,1l0.9,1.5L117.2,600.8z M123.6,599.2l-3-1.7l-1.8-3.1l2.1-8l13.4-8.8l0.9,15.5l-1.9,3.7L123.6,599.2z
		 M138.3,612.3l-0.9-3.7l1.9,0.1l1.8,1.1L138.3,612.3z M143.6,607.4l-3.9-0.1l-3.1-1.8l-2-8l2.4-4.7l13.6-6.3l0.3,14.1L143.6,607.4z
		 M159.2,607.9h1l-0.6,0.3L159.2,607.9z M162.9,611.8l-2.4-2.5l2.5-1.3h1.1L162.9,611.8z M164.9,605.5l-2.3,1.2l-4.7-0.1l-5.7-6
		l-0.3-14.6l14.3,6.9l1.8,3.1L164.9,605.5z M183.5,599.9l-3.3-1l1.1-1.7l1.5-0.8L183.5,599.9z M182.2,593.4l-1.8,2.8l-3.3,1.7
		l-7.9-2.5l-0.8-1.4l0.3,0.1l2.7-15.8l8.9,5.3L182.2,593.4z M194.6,579.6l-3.6,0.7l3.3-5L194.6,579.6z M194.1,573.1l-5,7.6l-8.1,1.6
		l-9.4-5.6l0.1-0.5l15.1-11.3l7.2,5.5L194.1,573.1z"></path>
	<path d="M220.6,760.3l0.9-1l0,0l-6.5-5.8l5.7-0.4l-0.1-1.3l-6,0.5l4.9-8.8l-1.2-0.7l-5.3,9.5l-11.4,0.9l9.1-9.7l-1-0.9
		l-10.1,10.8l-16.9,1.3l6.4-8.3h0.3l1.6,2.5l1.1-0.7l-1.3-2l7.9-1.1l-0.2-1.3l-8.3,1.1l2.7-3.5l2.2,0.3l0.2-1.3l0,0l-1.4-0.2
		l2.9-3.7l-1.1-0.8l-3.4,4.3l-4-0.6l-0.1-0.6l5.8-4.2l-0.8-1.1l-5.3,3.8l-0.3-1.7l-1.3,0.2l0.4,2.3l-1.1,0.8l-8.4-1.2l13.9-9.2
		l14.1,1.9l0.2-1.3l0,0l-12.6-1.7l9.6-6.3l9.7,2.2l0.3-1.3l0,0l-8.5-1.9l4.8-3.1l-0.7-1.1l-5,3.3v-10h-1.3v10.9l-9.6,6.3l3.2-12.9
		l-1.3-0.3l-3.6,14.4l-14.1,9.3l1.6-10.4l0.7-0.5l2.4,1.3l0.6-1.2l0,0l-1.8-1l5.9-4.4l-0.8-1.1l-6.4,4.8l-0.2-0.1l0.7-4.4l2.2-0.8
		l-0.5-1.3l-1.5,0.6l0.7-4.2l-1.3-0.2l-0.8,5l-4.1,1.6l-0.1-0.2l3.2-7l-1.2-0.6l-2.9,6.4l-1.1-1.3l-1,0.8l1.5,1.8l-0.3,0.7l-7.9,3
		l7.8-14.8l13.3-5.2l-0.5-1.3l-11.8,4.6l5.3-10.1l9.6-2.8l-0.4-1.3l0,0l-8.3,2.4l2.6-5l-1.2-0.6l-2.8,5.3l-4.8-8.8l-1.2,0.6l5.3,9.6
		l-5.3,10.1l-3.4-12.9l-1.3,0.3l3.8,14.3l-7.9,15l-3.6-9.8l0.3-0.8l3.2-0.1v-1.3h-2.5l3-6.7l-1.2-0.5l-3.3,7.3h-0.3l-1.4-3.8
		l1.8-2.2l-1-0.9l0,0l-1.3,1.6l-1.6-4.4l-1.3,0.5l1.9,5.1l-2.6,3.1h-0.1l-0.6-7.8l-1.3,0.1l0.5,7.2l-2-0.8l-0.5,1.2l0,0l2.6,1.1v0.7
		l-5.5,6.5l-0.4-16.7l9.1-10.9l-1-0.9l0,0l-8.1,9.8l-0.3-11.4l7-7.1l-0.9-0.9l0,0l-6.1,6.1l-0.1-5.7h-1.3l0.1,6l-8.5-5.4l-0.7,1.1
		l9.3,5.8l0.3,11.4l-9.3-9.6l-1,0.9l10.3,10.7l0.4,16.9l-8-6.8v-0.3l2.6-1.5l-0.7-1.2l-2.1,1.2l-0.7-7.9l-1.3,0.1l0.7,8.3l-3.3-2.8
		l0.4-2.2l-1.3-0.3l-0.3,1.4l-3.6-3.1l-0.9,1l4.2,3.6l-0.8,3.9l-0.6,0.1l-3.9-6l-1.1,0.7l3.5,5.4l-1.7,0.2l0.2,1.3l2.4-0.3l0.7,1.1
		l-1.6,8.3l-8.4-14.4l2.7-14l-1.3-0.2l0,0l-2.4,12.5l-5.8-9.9l2.7-9.6l-1.3-0.4l-2.4,8.4l-2.9-4.9l-1.2,0.7l3,5.2l-10-0.6l-0.1,1.3
		l10.9,0.6l5.8,9.9l-12.8-3.9l-0.4,1.3l14.2,4.3l8.5,14.6L116,722l-0.5-0.7l1.4-2.3l-1.2-0.7l0,0l-1.1,1.8l-4.1-6.2l-1.1,0.7
		l4.5,6.7l-0.1,0.2l-4.4-0.9l-0.7-2.2l-1.3,0.4l0.5,1.5l-4.2-0.9l-0.3,1.3l5,1l1.3,4.2l-0.2,0.1l-6.7-3.6l-0.6,1.2l6.1,3.2l-1.4,1
		l0.8,1.1l1.9-1.4l0.8,0.4l2.6,8.1l-14.3-8l-4.5-13.5L93,715l0,0l4,12l-9.8-5.8l-2.3-9.7l-1.3,0.3l2,8.5l-4.9-2.9l-0.7,1.2l5.2,3.1
		l-9,4.4l0.6,1.2l9.8-4.8l9.8,5.8L83.3,731l0.3,1.3l14.5-3.1l14.5,8.6l-10,3.1l-8.6-4.5l-0.6,1.2l7.4,3.8l-10.2,3.2L91,746l10.1-3.1
		v0.3l-2.8,5.8l-2.9-2.8l-0.9,1l3.2,3.1l-0.2,0.4l1.1,0.5l1.9,1.8l-8.5,0.9l0.1,1.3l9.6-1.1l6.4,6.1l-19.2,1.4l-6.9-9.8l-1.1,0.8
		l6.4,9.2l-5.8,0.4l0.3-0.3l-10.2-10.1l-0.9,1l9.4,9.2l-0.3,0.4l-9.2,0.7l0.1,1.3l7.9-0.6l-7.3,8.7l1,0.9l8.1-9.7l6.6-0.5l-7.1,8.1
		l1,0.9l0,0l8-9.1l19-1.4l-4.7,4.9l-2.1,0.2l-1.2-2.1l-1.2,0.7l0,0l0.9,1.5l-7.2,0.5l0.1,1.3l7.9-0.6l0.5,0.8l-3.1,3.3l-1.9-0.5
		l-0.3,1.3l1.1,0.3l-2.8,2.9l1,0.9l3.3-3.4l4.9,1.3v0.5l-6.4,4.5l0.8,1.1l5.7-4v0.6h1.3l0,0v-1.5l0.9-0.6l8.5,2.3l-16.1,10.6
		L87,783.2l-0.6,1.2l10.1,4.9l-4.8,3.2l0.1-0.4L78,788.2l-0.4,1.3l12.7,3.5l-0.1,0.5l-7.7,5.1l0.7,1.1l6.6-4.4l-2.2,11.2l1.3,0.3
		l2.4-12.4l5.5-3.6l-2.3,10.5l1.3,0.3l2.6-11.8l16-10.5l-1.7,6.6l-1.2,0.8l-2.3-1.4l-0.7,1.2l1.8,1.1l-6.5,4.3l0.7,1.1l7.1-4.6
		l0.5,0.3l-1.2,4.4l-1.8,0.4l0.3,1.3l1.1-0.3l-1.1,4.4l1.3,0.3l1.3-5.1l4.5-1.1l0.5,0.8l-3.2,6.6l1.2,0.6l2.8-5.8l0.3,0.6l1.2-0.7
		l0,0l-0.8-1.4l0.7-1.4l8.6-2.1l-9,17l-12,0.6l0.1,1.3l11.2-0.6l-2.7,5.1l-0.1-0.4l-14,3.3l0.3,1.3l12.8-3l0.2,0.5l-4.3,8.2l1.2,0.6
		l3.7-7l3.5,10.8l1.3-0.4l-3.9-12.1l3.1-5.9l3.1,10.3l1.3-0.4l0,0l-3.5-11.6l8.9-16.9l1.7,6.6l-0.7,1.3l-2.3-0.1v1.3l0,0h1.6
		l-3.6,6.9l1.2,0.6l3.9-7.5h0.6l1.2,4.8l-1,0.9l0.9,1l0.5-0.4l1,4l1.3-0.3l0,0l-1.2-4.7l3.6-3.4l1,0.6l0.4,7.1l1.3-0.1l-0.4-6.2
		l0.1,0.1l0.7-1.2l0,0l-0.9-0.5l-0.1-1.8l6.5-6l0.4,19.2l-10.2,6.4l0.7,1.1l9.5-5.9l0.1,5.8l-0.3-0.3l-10.6,9.7l0.9,1l9.7-8.9
		l0.4,0.3l0.2,9.3h1.3l-0.2-7.9l8.3,7.7l0.9-1l0,0l-9.3-8.6l-0.1-6.6l7.7,7.5l0.9-1l0,0l-8.7-8.5l-0.4-19.1l4.7,5v2.1l-2.1,1.1
		l0.6,1.2l1.5-0.8l0.2,7.2h1.3l-0.2-7.9l0.9-0.5l3.1,3.3l-0.6,1.8l1.3,0.4l0.4-1.1l2.7,2.9l1-0.9l0,0l-3.2-3.4l1.6-4.8h0.5l4.2,6.7
		l1.1-0.7l-3.7-5.9h0.6v-1.3l0,0h-1.5l-0.6-0.9l2.7-8.4l9.7,16.6l-5.8,10.5l1.2,0.7l5.4-9.8l2.9,5l-0.4-0.1l-4.6,13.6l1.3,0.4
		l4.2-12.5l0.5,0.1l4.7,8l1.2-0.7l-4-6.9l11,2.7l0.3-1.3l-12.3-3.1l-3.3-5.7l10.3,2.8l0.4-1.3l0,0L175,805l-9.6-16.5l6.5,2.1
		l0.8,1.3l-1.5,2.3l1.1,0.7l1.1-1.7l3.9,6.7l1.2-0.7l-4.2-7.3l0.3-0.5l4.3,1.4l0.4,1.9l1.3-0.3l-0.2-1.1l4.3,1.4l0.4-1.3l0,0l-5-1.6
		l-0.9-4.6l0.8-0.4l6.5,3.6l0.6-1.2l-5.7-3.1l0.6-0.3l-0.6-1.2l0,0l-1.4,0.7l-1.3-0.7l-1.7-8.7l16.5,9.8v12h1.3v-11.2l5,3l-0.4,0.1
		l2.6,14.1l1.3-0.2l-2.4-12.9l0.5-0.1l8,4.7l0.7-1.2l-6.8-4.1l11-3l-0.3-1.3l0,0l-12.2,3.3l-5.7-3.4l10.4-2.5l-0.5-1l0,0l-11.8,2.9
		l-16.4-9.8l6.7-1.3l9.3,5.5l0.7-1.1l-8-4.8l11.2-2.2l-0.3-1.3l0,0l-6.4,1.3l-0.4-5.9l0.4-0.7l-0.5-0.3l-0.1-1l6.3,4.8l0.8-1.1l0,0
		l-6.2-4.7l7.9-1L199,760l-9.3,1.2l-6.8-5.1l16.6-1.2l11.4,8.5l0.8-1.1l0,0l-10.2-7.6l11.4-0.9L220.6,760.3z M165.8,767.9l-9.8-5.8
		l6.1-4.6l18.8-1.4l-15.1,11.3V767.9z M162.6,784.1l-8.3-14.3l1.1-6.5l10.2,6.1l-2.5,14.9L162.6,784.1z M162.1,756.2l-6.8-3.9
		l9.3-6.1l15.1,8.7L162.1,756.2z M147.9,754.4l4.6-8.8l1,6.3l-5,3.3C148.3,754.9,148.1,754.6,147.9,754.4z M146.8,753.7
		c-0.1,0-0.2-0.1-0.2-0.1l-0.1-5.5l4.5-2.3L146.8,753.7z M145.2,753.6c-0.1,0-0.2,0-0.3,0.1l-5-8.6c2.6,1,4.5,2.3,5.2,2.9
		L145.2,753.6z M143.7,754.3c-0.1,0.1-0.2,0.2-0.3,0.3l-4.6-2.8l-0.2-6.3L143.7,754.3z M142.7,755.7c-0.2,0.7-0.1,1.2-0.1,1.9
		l-10.2,0.8l5.8-5.3L142.7,755.7z M142.6,759l-4.4,2.9l-5.1-2.2L142.6,759z M143.4,760.1l-4.1,7.8L139,763L143.4,760.1z M145,759.9
		c0.1,0,0.2,0,0.3,0l0.1,6.4l-5.1,2.3L145,759.9z M146.7,759.8c0.1,0,0.1,0,0.2-0.1l5.3,9l-5.4-2.6L146.7,759.8z M148,759l0.1-0.1
		l6.4,3.8l-1,5.7L148,759z M149.9,758.4l10.5-0.8l-5.2,3.9L149.9,758.4z M148.9,757.2c0-0.2,0-0.5,0-0.7l5.5-3.6l6,3.4L148.9,757.2z
		 M154.4,751.3l-1.1-7.1l7.8-14.8l2.5,15.9L154.4,751.3z M151.7,744.3l-5.3,2.7l-0.2-10.5l13.2-6.8L151.7,744.3z M145,746.7
		c-1.1-0.8-3.2-2.1-5.9-2.9l-9-15.4c7.6,2.1,12.8,5.9,14.6,7.5L145,746.7z M129.9,745.8l-0.5-16l8.1,13.9l0.2,7.5l-8.2-4.9l0.3-0.3
		L129.9,745.8z M137.3,752.5l-6.4,6l-15.7,1.2l13.3-12.4L137.3,752.5z M131,759.9l6.3,2.6l-7.7,5.1l-15.3-6.4L131,759.9z
		 M138.1,763.6l0.4,5.9l-7.1,13.6l-0.9-14.5L138.1,763.6z M139.7,770.1l5.8-2.7l0.2,9.7l-12.8,6L139.7,770.1z M146.8,767.3l6.2,3
		l7.4,12.7l-13.4-6.5L146.8,767.3z M191.5,741.1l-2,2.6l-0.4-0.6l-0.4-2.5L191.5,741.1z M185.6,740.3l2.2,3.4l0.3,1.8l-7,9l-15.7-9
		l10.3-6.7L185.6,740.3z M177.6,720.3l-0.5,3.2l-1.5-0.8l-1-1.3L177.6,720.3z M172.2,722.4l2.6,1.4l2,2.5l-1.8,11.5l-10.5,6.9
		l-2.6-16.8l1-2L172.2,722.4z M155.7,709.2l1,2.7h-1.6l-1.2-0.5L155.7,709.2z M152.2,713.3h2.5l2.8,1.2l4,11l-1.6,3l-14,7.2
		l-0.3-14.7L152.2,713.3z M131.4,709.8l2.5,2.2l-0.5,0.3l-2.5,0.3L131.4,709.8z M130.3,715.6l3.6-2.1l1.7-0.2l8.9,7.6l0.3,13.7
		c-2.4-1.9-7.8-5.5-15.3-7.4l-1.1-1.9L130.3,715.6z M109.9,722.5l3.2,0.7l-0.8,1.4l-1.4,1L109.9,722.5z M111.7,728.1l1.6-2.6
		l2.4-1.7l11.4,2.4l1.2,2.1l0.5,17.5l-0.2,0.2l-13.9-8.3L111.7,728.1z M101.2,746.1l0.1,5.7l-2-1.9L101.2,746.1z M102.7,753.1
		l-0.2-9.7l0.5-1.1l11.2-3.5l13.5,8l-14,13l-3.7,0.3L102.7,753.1z M102.9,768.8v0.9l-0.3-0.6L102.9,768.8z M99.3,772.6l2.4-2.5
		l1.4,2.3v1.1L99.3,772.6z M105.7,774.3l-1.3-2.2l-0.1-4.6l5.7-6l2.2-0.2l16.5,6.9l-13.2,8.7L105.7,774.3z M112.3,792.5l0.9-3.4
		l1.7,1l0.9,1.5L112.3,792.5z M118.8,790.9l-3-1.7L114,786l2.1-8l13.4-8.8l0.9,15.5l-1.9,3.7L118.8,790.9z M133.5,803.9l-0.9-3.7
		l1.9,0.1l1.8,1.1L133.5,803.9z M138.7,799.1l-3.9-0.1l-3.1-1.8l-2-8l2.4-4.7l13.6-6.3l0.3,14.1L138.7,799.1z M154.4,799.6h1
		l-0.6,0.3L154.4,799.6z M158,803.5l-2.4-2.5l2.5-1.3h1.1L158,803.5z M160,797.2l-2.3,1.2l-4.7-0.1l-5.7-6l-0.3-14.6l14.3,6.9
		l1.8,3.1L160,797.2z M178.6,791.5l-3.3-1l1.1-1.7l1.5-0.8L178.6,791.5z M177.3,785l-1.8,2.8l-3.3,1.7l-7.9-2.5l-0.8-1.4l0.3,0.1
		l2.7-15.8l8.9,5.3L177.3,785z M189.7,771.3l-3.6,0.7l3.3-5L189.7,771.3z M189.3,764.8l-5,7.6l-8.1,1.6l-9.4-5.6l0.1-0.5l15.1-11.3
		l7.2,5.5L189.3,764.8z"></path>
	<polygon points="63.4,847.3 61.3,850 63,850 64.4,848.1 	"></polygon>
	<path d="M58.9,840.3l14.1,1.9l0.2-1.3l0,0l-12.6-1.7l9.6-6.3l9.7,2.2l0.3-1.3l0,0l-8.5-1.9l4.8-3.1l-0.7-1.1l-5,3.3
		v-10h-1.3v10.9l-9.6,6.3l3.2-12.9l-1.3-0.3l-3.6,14.4L44,848.5l1.6-10.4l0.7-0.5l2.4,1.3l0.6-1.2l0,0l-1.8-1l5.9-4.4l-0.8-1.1
		l-6.4,4.8l-0.2-0.1l0.7-4.4l2.2-0.8l-0.5-1.3l-1.5,0.6l0.7-4.2l-1.3-0.2l-0.8,5l-4.1,1.6l-0.1-0.2l3.2-7l-1.2-0.6l-2.9,6.4
		l-1.1-1.3l-1,0.8l1.5,1.8l-0.3,0.7l-7.9,3l7.8-14.8l13.3-5.2l-0.5-1.3l-11.8,4.6l5.3-10.1l9.6-2.8l-0.4-1.3l0,0l-8.3,2.4l2.6-5
		l-1.2-0.6l-2.8,5.3l-4.8-8.8l-1.2,0.6l5.3,9.6l-5.3,10.1l-3.4-12.9l-1.3,0.3l3.8,14.3l-7.9,15l-3.6-9.8l0.3-0.8l3.2-0.1v-1.3h-2.5
		l3-6.7l-1.2-0.5l-3.3,7.3H26l-1.4-3.8l1.8-2.2l-1-0.9l0,0l-1.3,1.6l-1.6-4.4l-1.3,0.5l1.9,5.1l-2.6,3.1h-0.1l-0.6-7.8l-1.3,0.1
		l0.5,7.2l-2-0.8l-0.5,1.2l0,0l2.6,1.1v0.7l-5.5,6.5l-0.4-16.7L22,803l-1-0.9l0,0l-8.1,9.8l-0.3-11.4l7-7.1l-0.9-0.9l0,0l-6.1,6.1
		l-0.1-5.7h-1.3l0.1,6l-8.5-5.4L2,794.7l9.3,5.8l0.3,11.4l-9.3-9.6l-1,0.9L11.6,814l0.4,16.9L4,824v-0.3l2.6-1.5L5.9,821l-2.1,1.2
		l-0.7-7.9l-1.3,0.1l0.7,8.3L0,820.6v1.8l1.5,1.3L1,824l-1,0.1v2l1.4-0.8l1.7-0.2l8.9,7.6l0.3,13.7c-2.1-1.6-6.4-4.5-12.3-6.5v1
		c6.3,2.2,10.7,5.4,12.3,6.7l0.1,2.3h1.3v-1.6l13.2-6.8l-4.4,8.4H24l4.7-8.9l1.3,9h1l-1.6-10.4l1-2l9.3-3.5l2.6,1.4l2,2.5l-1.8,11.5
		l-0.8,0.5h6.7l-3.5-0.5L58.9,840.3z M23.2,820.9l1,2.7h-1.6l-1.2-0.5L23.2,820.9z M27.6,840.1l-14,7.2l-0.3-14.7l6.4-7.6h2.5
		l2.8,1.2l4,11L27.6,840.1z M43.2,834.4l-1-1.3l3-1.1l-0.5,3.2L43.2,834.4z"></path>
	<polygon points="60.9,845.2 55.7,849 55.4,847.3 54.1,847.6 54.5,849.9 54.3,850 56.6,850 61.7,846.3 	"></polygon>
	<polygon points="0,846.8 1.9,850 3.4,850 0,844.1 	"></polygon>
	<path d="M54.1,847.6L54.1,847.6L54.1,847.6z"></path>
	<polygon points="260.9,849.4 261.9,850 264.9,850 261.5,848.3 	"></polygon>
	<path d="M299.7,817.8l-1.3-0.3l-0.3,1.4l-3.6-3.1l-0.9,1l4.2,3.6l-0.8,3.9l-0.6,0.1l-3.9-6l-1.1,0.7l3.5,5.4l-1.7,0.2
		l0.2,1.3l2.4-0.3l0.7,1.1l-1.6,8.3l-8.4-14.4l2.7-14l-1.3-0.2l0,0l-2.4,12.5l-5.8-9.9l2.7-9.6l-1.3-0.4l-2.4,8.4l-2.9-4.9l-1.2,0.7
		l3,5.2l-10-0.6l-0.1,1.3l10.9,0.6l5.8,9.9l-12.8-3.9l-0.4,1.3l14.2,4.3l8.5,14.6l-10.3-2.1l-0.5-0.7l1.4-2.3l-1.2-0.7l0,0L282,832
		l-4.1-6.2l-1.1,0.7l4.5,6.7l-0.1,0.2l-4.4-0.9l-0.7-2.2L275,831l0.5,1.5l-4.2-0.9l-0.3,1.3l5,1l1.3,4.2l-0.2,0.1l-6.7-3.6l-0.6,1.2
		l6.1,3.2l-1.4,1l0.8,1.1l1.9-1.4l0.8,0.4l2.6,8.1l-14.3-8.5l-4.5-13.5l-1.3,0.4l0,0l4,12l-9.8-5.8l-2.3-9.7l-1.3,0.3l2,8.5
		l-4.9-2.9l-0.7,1.2l5.2,3.1l-9,4.4l0.6,1.2l9.8-4.8l9.8,5.8l-13.1,2.8l0.3,1.3l14.5-3.1l14.5,8.6l-1.3,0.4h4.6l-1.1-0.7l-3.1-9.5
		l1.6-2.6l2.4-1.7l11.4,2.4l1.2,2.1l0.3,10.1h1l-0.2-8.4l3,5.2v-2.7l-2.3-3.9c0.8,0.2,1.5,0.5,2.3,0.7v-1c-0.9-0.3-1.9-0.6-3-0.9
		l-1.1-1.9l1.9-9.8l2.2-1.3v-2l-1.6,0.2l0.5-2.8l1,0.9v-1.8l-0.7-0.6L299.7,817.8z M279.9,836.3l-1.4,1l-1-3l3.2,0.7L279.9,836.3z"></path>
	<path d="M299.5,169.1l-1.3-0.3l-0.3,1.4l-3.6-3.1l-0.9,1l4.2,3.6l-0.8,3.9l-0.6,0.1l-3.9-6l-1.1,0.7l3.5,5.4L293,176
		l0.2,1.3l2.4-0.3l0.7,1.1l-1.6,8.3l-8.4-14.4l2.7-14l-1.3-0.2l0,0l-2.4,12.5l-5.8-9.9l2.7-9.6l-1.3-0.4l-2.4,8.4l-2.9-4.9l-1.2,0.7
		l3,5.2l-10-0.6l-0.1,1.3l10.9,0.6l5.8,9.9l-12.8-3.9l-0.4,1.3l14.2,4.3l8.5,14.6l-10.3-2.1l-0.5-0.7l1.4-2.3l-1.2-0.7l0,0l-1.1,1.8
		l-4.1-6.2l-1.1,0.7l4.5,6.7l-0.1,0.2l-4.4-0.9l-0.7-2.2l-1.3,0.4l0.5,1.5l-4.2-0.9l-0.3,1.3l5,1l1.3,4.2l-0.2,0.1l-6.7-3.6
		l-0.6,1.2l6.1,3.2l-1.4,1l0.8,1.1l1.9-1.4l0.8,0.4l2.6,8.1l-14.3-8.5l-4.5-13.5l-1.3,0.4l0,0l4,12l-9.8-5.8l-2.3-9.7l-1.3,0.3
		l2,8.5l-4.9-2.9l-0.7,1.2l5.2,3.1l-9,4.4l0.6,1.2l9.8-4.8l9.8,5.8l-13.1,2.8l0.3,1.3l14.5-3.1l14.5,8.6l-10,3.1l-8.6-4.5l-0.6,1.2
		l7.4,3.8l-10.2,3.2l0.4,1.3l10.1-3.1v0.3l-2.8,5.8l-2.9-2.8l-0.9,1l3.2,3.1l-0.2,0.4l1.1,0.5l1.9,1.8l-8.5,0.9l0.1,1.3l9.6-1.1
		l6.4,6.1l-19.2,1.4l-6.9-9.8l-1.1,0.8l6.4,9.2l-5.8,0.4l0.3-0.3l-9.9-9.7l-0.9,1l9.4,9.2l-0.3,0.4l-9.2,0.7l0.1,1.3l7.9-0.6
		l-7.3,8.7l1,0.9l8.1-9.7l6.6-0.5l-7.1,8.1l1,0.9l0,0l8-9.1l19-1.4l-4.7,4.9l-2.1,0.2l-1.2-2.1l-1.2,0.7l0,0l0.9,1.5l-7.2,0.5
		l0.1,1.3l7.9-0.6l0.5,0.8l-3.1,3.3l-1.9-0.5L263,236l1.1,0.3l-2.8,2.9l1,0.9l3.3-3.4l4.9,1.3v0.5l-6.4,4.5l0.8,1.1l5.7-4v0.6h1.3
		l0,0v-1.5l0.9-0.6l8.5,2.3l-16.1,10.6l-10.8-5.3l-0.6,1.2l10.1,4.9l-4.8,3.2l0.1-0.4l-13.8-3.9l-0.4,1.3l12.7,3.5l-0.1,0.5
		l-7.7,5.1l0.7,1.1l6.6-4.4l-2.2,11.2l1.3,0.3l2.4-12.4l5.5-3.6l-2.3,10.5l1.3,0.3l2.6-11.8l16-10.5l-1.7,6.6l-1.2,0.8l-2.3-1.4
		l-0.7,1.2l1.8,1.1l-6.5,4.3l0.7,1.1l7.1-4.6l0.5,0.3l-1.2,4.4l-1.8,0.4l0.3,1.3l1.1-0.3l-1.1,4.4l1.3,0.3l1.3-5.1l4.5-1.1l0.5,0.8
		l-3.2,6.6l1.2,0.6l2.8-5.8l0.3,0.6l1.2-0.7l0,0l-0.8-1.4l0.7-1.4l8.6-2.1l-9,17l-12,0.6l0.1,1.3l11.2-0.6l-2.7,5.1l-0.1-0.4
		l-14,3.3l0.3,1.3l12.8-3l0.2,0.5l-4.3,8.2l1.2,0.6l3.7-7l3.5,10.8l1.3-0.4l-3.9-12.1l3.1-5.9l3.1,10.3l1.3-0.4l0,0l-3.5-11.6
		l8.9-16.9l1.7,6.6l-0.7,1.3l-2.3-0.1v1.3l0,0h1.6l-3.6,6.9l1.2,0.6l3.9-7.5h0.6l1.2,4.8l-1,0.9l0.9,1l0.4-0.4v-5.6l-0.2-0.7h0.2
		v-2.5l-1-0.6l-2-8l2.4-4.7l0.6-0.3v-3.7l-1.4,2.6l-0.9-14.5l2.3-1.5v-1.6l-3.1,2l-15.3-6.4l16.7-1.3l1.7,0.7V221H300l0.3-0.3v-1.3
		l-1.8,1.7l-15.7,1.2l13.3-12.4l4.2,2.5v-1.6l-3.1-1.9l0.3-0.3v-0.2l-0.5-16l3.3,5.6v-2.7l-2.5-4.3c0.9,0.2,1.7,0.5,2.5,0.8v-1
		c-1-0.3-2.1-0.7-3.2-0.9L296,188l1.9-9.8l2.4-1.4v-1.9l-1.8,0.2l0.5-2.8l1.3,1.1v-1.8l-1-0.8L299.5,169.1z M266.7,212.9l1.8-3.8
		l0.1,5.7L266.7,212.9z M270.3,231.8v0.9l-0.3-0.6L270.3,231.8z M266.6,235.6l2.4-2.5l1.4,2.3v1.1L266.6,235.6z M277.3,185.5
		l3.2,0.7l-0.8,1.4l-1.4,1L277.3,185.5z M279.6,255.5l0.9-3.4l1.7,1l0.9,1.5L279.6,255.5z M297.8,247.8l-1.9,3.7l-9.8,2.4l-3-1.7
		l-1.8-3.1l2.1-8l13.4-8.8L297.8,247.8z M296,231.2l-13.2,8.7l-9.7-2.6l-1.3-2.2l-0.1-4.6l5.7-6l2.2-0.2L296,231.2z M281,222.8
		l-3.7,0.3l-7.2-7l-0.2-9.7l0.5-1.1l11.2-3.5l13.5,8L281,222.8z M295.7,191.2l0.5,17.5l-0.2,0.2l-13.9-8.3l-3.1-9.5l1.6-2.6l2.4-1.7
		l11.4,2.4L295.7,191.2z"></path>
	<path d="M299.3,387l-8.5-5.4l-0.7,1.1l9.3,5.8l0.3,11.4l-9.3-9.6l-1,0.9l10.3,10.7L300,419l-8-6.8v-0.3l2.6-1.5
		l-0.7-1.2l-2.1,1.2l-0.7-7.9l-1.3,0.1l0.7,8.3l-3.3-2.8l0.4-2.2l-1.3-0.3L286,407l-3.6-3.1l-0.9,1l4.2,3.6l-0.8,3.9l-0.6,0.1
		l-3.9-6l-1.1,0.7l3.5,5.4l-1.7,0.2l0.2,1.3l2.4-0.3l0.7,1.1l-1.6,8.3l-8.4-14.4l2.7-14l-1.3-0.2l0,0l-2.4,12.5l-5.8-9.9l2.7-9.6
		l-1.3-0.4l-2.4,8.4l-2.9-4.9l-1.2,0.7l3,5.2l-10-0.6l-0.1,1.3l10.9,0.6l5.8,9.9l-12.8-3.9l-0.4,1.3l14.2,4.3l8.5,14.6l-10.3-2.1
		l-0.5-0.7l1.4-2.3l-1.2-0.7l0,0l-1.1,1.8l-4.1-6.2l-1.1,0.7l4.5,6.7l-0.1,0.2l-4.4-0.9l-0.7-2.2l-1.3,0.4l0.5,1.5l-4.2-0.9l0,1.6
		l5,1l1.3,4.2l-0.2,0.1l-6.7-3.6l-0.6,1.2l6.1,3.2l-1.4,1l0.8,1.1l1.9-1.4l0.8,0.4l2.6,8.1l-14.3-8.5l-4.5-13.5l-1.3,0.4l0,0l4,12
		l-9.8-5.8l-2.3-9.7l-1.3,0.3l2,8.5l-4.9-2.9l-0.7,1.2l5.2,3.1l-9,4.4l0.6,1.2l9.8-4.8l9.8,5.8l-13.1,2.8l0.3,1.3l14.5-3.1l14.5,8.6
		l-10,3.1l-8.6-4.5l-0.6,1.2l7.4,3.8l-10.2,3.2l0.4,1.3l10.1-3.1v0.3l-2.8,5.8L251,446l-0.9,1l3.2,3.1l-0.2,0.4l1.1,0.5l1.9,1.8
		l-8.5,0.9l0.1,1.3l9.6-1.1l6.4,6.1l-19.2,1.4l-6.9-9.8l-1.1,0.8l6.4,9.2l-5.8,0.4l0.3-0.3l-10.2-10.1l-0.9,1l9.4,9.2l-0.3,0.4
		l-9.2,0.7l0.1,1.3l7.9-0.6l-7.3,8.7l1,0.9l8.1-9.7l6.6-0.5l-7.1,8.1l1,0.9l0,0l8-9.1l19-1.4l-4.7,4.9l-2.1,0.2l-1.2-2.1l-1.2,0.7
		l0,0l0.9,1.5l-7.2,0.5l0.1,1.3l7.9-0.6l0.5,0.8l-3.1,3.3l-1.9-0.5l-0.3,1.3l1.1,0.3l-2.8,2.9l1,0.9l3.3-3.4l4.9,1.3v0.5l-6.4,4.5
		l0.8,1.1l5.7-4v0.6h1.3l0,0V476l0.9-0.6l8.5,2.3l-16.1,10.6l-10.8-5.3l-0.6,1.2l10.1,4.9l-4.8,3.2l0.1-0.4l-13.8-3.9l-0.4,1.3
		l12.7,3.5l-0.1,0.5l-7.7,5.1l0.7,1.1l6.6-4.4l-2.2,11.2l1.3,0.3l2.4-12.4l5.5-3.6l-2.3,10.5l1.3,0.3l2.6-11.8l16-10.5l-1.7,6.6
		l-1.2,0.8l-2.3-1.4l-0.7,1.2l1.8,1.1l-6.5,4.3l0.7,1.1l7.1-4.6l0.5,0.3l-1.2,4.4l-1.8,0.4l0.3,1.3l1.1-0.3l-1.1,4.4l1.3,0.3
		l1.3-5.1l4.5-1.1l0.5,0.8l-3.2,6.6l1.2,0.6l2.8-5.8l0.3,0.6l1.2-0.7l0,0l-0.8-1.4l0.7-1.4l8.6-2.1l-9,17l-12,0.6l0.1,1.3l11.2-0.6
		l-2.7,5.1l-0.1-0.4l-14,3.3l0.3,1.3l12.8-3l0.2,0.5l-4.3,8.2l1.2,0.6l3.7-7l3.5,10.8l1.3-0.4l-3.9-12.1l3.1-5.9l3.1,10.3l1.3-0.4
		l0,0l-3.5-11.6l8.9-16.9l1.7,6.6l-0.7,1.3l-2.3-0.1v1.3l0,0h1.6l-3.6,6.9l1.2,0.6l3.9-7.5h0.6l1.2,4.8l-1,0.9l0.9,1l0.5-0.4l1,4
		l1.3-0.3l0,0l-1.2-4.7l3.6-3.4l1,0.6l0.4,7.1l1.3-0.1l-0.4-6.2l0.1,0.1l0.7-1.2l0,0l-0.9-0.5l-0.1-1.8l4.8-4.5v-1.8l-5.7,5.3
		l-3.9-0.1l-3.1-1.8l-2-8l2.4-4.7l12.3-5.7v-1.1l-11.5,5.4l6.8-13l4.7-2.2v-1.1l-4,1.9l4-7.6v-8.2l-4.6-7.8c2.1,0.7,3.6,1.7,4.6,2.4
		v-1.2c-1.2-0.8-3-1.8-5.3-2.5l-9-15.4c7.1,2,12.1,5.5,14.3,7.2V434c-2.6-1.9-7.8-5.3-14.9-7.1l-1.1-1.9l1.9-9.8l3.6-2.1l1.7-0.2
		l8.8,7.6V381h-0.9L299.3,387z M254.9,449.7l1.8-3.8l0.1,5.7L254.9,449.7z M258.5,468.6v0.9l-0.3-0.6L258.5,468.6z M254.9,472.4
		l2.4-2.5l1.4,2.3v1.1L254.9,472.4z M290,500.1l1.8,1.1l-2.8,2.6l-0.9-3.7H290z M265.5,422.3l3.2,0.7l-0.8,1.4l-1.4,1L265.5,422.3z
		 M258.3,452.9l-0.2-9.7l0.5-1.1l11.2-3.5l13.5,8l-14,13l-3.7,0.3L258.3,452.9z M292.9,462.3l-7.7,5.1l-15.3-6.4l16.7-1.3
		L292.9,462.3z M288.7,459.5l9.5-0.7l-4.4,2.9L288.7,459.5z M286.5,458.4l-15.7,1.2l13.3-12.4l8.8,5.2L286.5,458.4z M261.3,474.1
		l-1.3-2.2l-0.1-4.6l5.7-6l2.2-0.2l16.5,6.9l-13.2,8.7L261.3,474.1z M267.9,492.3l0.9-3.4l1.7,1l0.9,1.5L267.9,492.3z M284.1,488.3
		l-9.8,2.4l-3-1.7l-1.8-3.1l2.1-8l13.4-8.8l0.9,15.5L284.1,488.3z M286.9,482.9l-0.9-14.5l7.7-5l0.4,5.9L286.9,482.9z M294.9,467.7
		l-0.3-4.9l4.4-2.9L294.9,467.7z M299.3,454.1c-0.1,0.1-0.2,0.2-0.3,0.3l-4.6-2.8l-0.2-6.3L299.3,454.1z M298.3,455.6
		c-0.2,0.7-0.1,1.2-0.1,1.9l-10.2,0.8l5.8-5.3L298.3,455.6z M293.1,443.6l0.2,7.5l-8.2-4.9l0.3-0.3v-0.2l-0.5-16L293.1,443.6z
		 M284,428l0.5,17.5l-0.2,0.2l-13.9-8.3l-3.1-9.5l1.6-2.6l2.4-1.7l11.4,2.4L284,428z M289,412.1l-2.5,0.3l0.5-2.8l2.5,2.2L289,412.1
		z"></path>
	<polygon points="292.3,530.8 300,523.7 300,521.9 291.3,529.8 	"></polygon>
	<polygon points="292.6,520.6 300,516 300,514.4 291.9,519.4 	"></polygon>
	<path d="M292.1,603l7-7.1l-0.9-0.9l0,0l-6.1,6.1l-0.1-5.7h-1.3l0.1,6l-8.5-5.4l-0.7,1.1l9.3,5.8l0.3,11.4l-9.3-9.6
		l-1,0.9l10.3,10.7l0.4,16.9l-8-6.8v-0.3l2.6-1.5l-0.7-1.2l-2.1,1.2l-0.7-7.9l-1.3,0.1l0.7,8.3l-3.3-2.8l0.4-2.2l-1.3-0.3l-0.3,1.4
		l-3.6-3.1l-0.9,1l4.2,3.6l-0.8,3.9l-0.6,0.1l-3.9-6l-1.1,0.7l3.5,5.4l-1.7,0.2l0.2,1.3l2.4-0.3l0.7,1.1l-1.6,8.3L266,623l2.7-14
		l-1.3-0.2l0,0l-2.4,12.5l-5.8-9.9l2.7-9.6l-1.3-0.4l-2.4,8.4l-2.9-4.9l-1.2,0.7l3,5.2l-10-0.6l-0.1,1.3l10.9,0.6l5.8,9.9l-12.8-3.9
		l-0.4,1.3l14.2,4.3l8.5,14.6l-10.3-2.1l-0.5-0.7l1.4-2.3l-1.2-0.7l0,0l-1.1,1.8l-4.1-6.2l-1.1,0.7l4.5,6.7l-0.1,0.2l-4.4-0.9
		l-0.7-2.2l-1.3,0.4l0.5,1.5l-4.2-0.9l-0.3,1.3l5,1l1.3,4.2l-0.2,0.1l-6.7-3.6l-0.6,1.2l6.1,3.2l-1.4,1l0.8,1.1l1.9-1.4l0.8,0.4
		l2.6,8.1l-14.3-8.5l-4.5-13.5l-1.3,0.4l0,0l4,12l-9.8-5.8l-2.3-9.7l-1.3,0.3l2,8.5l-4.9-2.9l-0.7,1.2l5.2,3.1l-9,4.4l0.6,1.2
		l9.8-4.8l9.8,5.8l-13.1,2.8l0.3,1.3l14.5-3.1l14.5,8.6l-10,3.1l-8.6-4.5l-0.6,1.2l7.4,3.8l-10.2,3.2l0.4,1.3l10.1-3.1v0.3l-2.8,5.8
		l-2.9-2.8l-0.9,1l3.2,3.1l-0.2,0.4l1.1,0.5l1.9,1.8l-8.5,0.9l0.1,1.3l9.6-1.1l6.4,6.1L236,676l-6.9-9.8L228,667l6.4,9.2l-5.8,0.4
		l0.3-0.3l-10.2-10.1l-0.9,1l9.4,9.2l-0.3,0.4l-9.2,0.7l0.1,1.3l7.9-0.6l-7.3,8.7l1,0.9l8.1-9.7l6.6-0.5l-7.1,8.1l1,0.9l0,0l8-9.1
		l19-1.4l-4.7,4.9l-2.1,0.2l-1.2-2.1l-1.2,0.7l0,0l0.9,1.5l-7.2,0.5l0.1,1.3l7.9-0.6l0.5,0.8l-3.1,3.3l-1.9-0.5l-0.3,1.3l1.1,0.3
		l-2.8,2.9l1,0.9l3.3-3.4l4.9,1.3v0.5l-6.4,4.5l0.8,1.1l5.7-4v0.6h1.3l0,0v-1.5l0.9-0.6l8.5,2.3l-16.1,10.6l-10.8-5.3l-0.6,1.2
		l10.1,4.9l-4.8,3.2l0.1-0.4l-13.8-3.9l-0.4,1.3l12.7,3.5l-0.1,0.5l-7.7,5.1l0.7,1.1l6.6-4.4l-2.2,11.2l1.3,0.3l2.4-12.4l5.5-3.6
		l-2.3,10.5l1.3,0.3l2.6-11.8l16-10.5l-1.7,6.6l-1.2,0.8l-2.3-1.4l-0.7,1.2l1.8,1.1l-6.5,4.3l0.7,1.1l7.1-4.6l0.5,0.3l-1.2,4.4
		l-1.8,0.4l0.3,1.3l1.1-0.3l-1.1,4.4l1.3,0.3l1.3-5.1l4.5-1.1l0.5,0.8l-3.2,6.6l1.2,0.6l2.8-5.8l0.3,0.6l1.2-0.7l0,0l-0.8-1.4
		l0.7-1.4l8.6-2.1l-9,17l-12,0.6l0.1,1.3l11.2-0.6l-2.7,5.1l-0.1-0.4l-14,3.3l0.3,1.3l12.8-3l0.2,0.5l-4.3,8.2l1.2,0.6l3.7-7
		l3.5,10.8l1.3-0.4l-3.9-12.1l3.1-5.9l3.1,10.3l1.3-0.4l0,0l-3.5-11.6l8.9-16.9l1.7,6.6l-0.7,1.3l-2.3-0.1v1.3l0,0h1.6l-3.6,6.9
		l1.2,0.6l3.9-7.5h0.6l1.2,4.8l-1,0.9l0.9,1l0.5-0.4l1,4l1.3-0.3l0,0l-1.2-4.7l3.6-3.4l1,0.6l0.4,7.1l1.3-0.1l-0.4-6.2l0.1,0.1
		l0.7-1.2l0,0l-0.9-0.5l-0.1-1.8l6.5-6l0.4,19.2l-10.2,6.4l0.7,1.1l9.5-5.9l0.1,5.8l-0.3-0.3l-10.6,9.7l0.9,1l9.7-8.9l0.4,0.3
		l0.2,9.3h1.3l-0.2-7.9l4.8,4.5v-1.8l-4.9-4.5l-0.1-6.6l5,4.9v-1.9l-5-4.9l-0.4-19.1l4.7,5v2.1l-2.1,1.1l0.6,1.2l1.5-0.8l0.2,7.2
		h0.6v-11.9l-5.5-5.9l-0.3-14.6l5.9,2.8v-1.1l-5.9-2.8l-0.2-9.3l6.1,2.9v-2.8l-4.9-8.4l0.1-0.1l4.8,2.9v-1.6l-3-1.8l3-0.2v-1.3
		l-4,0.3c0-0.2,0-0.5,0-0.7l4-2.6v-1.6l-4.4,2.9c-0.2-0.3-0.4-0.5-0.6-0.7l4.6-8.8l0.4,2.5v-6.1l-1.2,2.4l-5.3,2.7l-0.2-10.5
		l6.8-3.5v-1.1l-6.8,3.5l-0.3-14.7l6.4-7.6h0.7v-2.9l-0.4,0.5h-0.1l-0.6-7.8l-1.3,0.1l0.5,7.2l-2-0.8l-0.5,1.2l0,0l2.6,1.1v0.7
		l-5.5,6.5l-0.4-16.7l7.6-9.1v-2.1l-7.6,9.1L292.1,603z M246.4,664.2l1.8-3.8l0.1,5.7L246.4,664.2z M250,683.1v0.9l-0.3-0.6
		L250,683.1z M246.4,686.9l2.4-2.5l1.4,2.3v1.1L246.4,686.9z M299.2,683.2l-5.4-2.6l-0.1-6.4c0.1,0,0.1,0,0.2-0.1L299.2,683.2z
		 M298,660.2l-4.1,7.9c-0.1,0-0.2-0.1-0.2-0.1l-0.1-5.5L298,660.2z M292.3,667.9c-0.1,0-0.2,0-0.3,0.1l-5-8.6c2.6,1,4.5,2.3,5.2,2.9
		L292.3,667.9z M289.7,672l-10.2,0.8l5.8-5.3l4.5,2.7C289.6,670.9,289.7,671.3,289.7,672z M277,660.2l-0.5-16l8.1,13.9l0.2,7.5
		l-8.2-4.9l0.3-0.3L277,660.2z M284.4,666.9l-6.4,6l-15.7,1.2l13.3-12.4L284.4,666.9z M278.1,674.2l6.3,2.6l-7.7,5.1l-15.3-6.4
		L278.1,674.2z M285.2,677.9l0.4,5.9l-7.1,13.6l-0.9-14.5L285.2,677.9z M285.4,676.2l-5.1-2.2l9.5-0.7L285.4,676.2z M290.5,674.4
		l-4.1,7.8l-0.3-4.9L290.5,674.4z M290.5,668.9l-4.6-2.8l-0.2-6.3l5.1,8.8C290.7,668.7,290.6,668.8,290.5,668.9z M292.1,661.1
		c-1.1-0.8-3.2-2.1-5.9-2.9l-9-15.4c7.6,2.1,12.8,5.9,14.6,7.5L292.1,661.1z M278.5,624.1l2.5,2.2l-0.5,0.3l-2.5,0.3L278.5,624.1z
		 M277.4,629.9l3.6-2.1l1.7-0.2l8.9,7.6l0.3,13.7c-2.4-1.9-7.8-5.5-15.3-7.4l-1.1-1.9L277.4,629.9z M257,636.9l3.2,0.7l-0.8,1.4
		l-1.4,1L257,636.9z M258.8,642.5l1.6-2.6l2.4-1.7l11.4,2.4l1.2,2.1L276,660l-0.2,0.2l-13.9-8.3L258.8,642.5z M249.8,667.5l-0.2-9.7
		l0.5-1.1l11.2-3.5l13.5,8l-14,13l-3.7,0.3L249.8,667.5z M252.8,688.6l-1.3-2.2l-0.1-4.6l5.7-6l2.2-0.2l16.5,6.9l-13.2,8.7
		L252.8,688.6z M259.4,706.8l0.9-3.4l1.7,1l0.9,1.5L259.4,706.8z M275.6,702.8l-9.8,2.4l-3-1.7l-1.8-3.1l2.1-8l13.4-8.8l0.9,15.5
		L275.6,702.8z M280.5,718.3l-0.9-3.7l1.9,0.1l1.8,1.1L280.5,718.3z M293.1,706.5l-7.4,6.9l-3.9-0.1l-3.1-1.8l-2-8l2.4-4.7l13.6-6.3
		L293.1,706.5z M292.8,691.4l-12.8,6l6.8-13l5.8-2.7L292.8,691.4z M292.5,680.7l-5.1,2.3l4.6-8.8c0.1,0,0.2,0,0.3,0L292.5,680.7z"></path>
</g></g></pattern></defs><rect width="100%" height="100%" id="RctSolidBackground1" fill="url(#pattern-348-layer-1)"></rect></svg>